<svg version="1.1"  xmlns="http://www.w3.org/2000/svg">
  <symbol id="test" width="79" height="53" viewBox="0 0 79 53">
  </symbol>
  <symbol id="icon-feedback-close" width="32" height="32" viewBox="0 0 32 32">
    <rect x="22.1428" y="8.00146" width="2" height="20" rx="1" transform="rotate(45 22.1428 8.00146)" fill="#EF0D37"/>
    <rect x="23.5569" y="22.1421" width="2" height="20" rx="1" transform="rotate(135 23.5569 22.1421)" fill="#EF0D37"/>
  </symbol>
  <symbol id="icon-wp" width="42" height="42" viewBox="0 0 42 42">
    <path d="M21 42C32.598 42 42 32.598 42 21C42 9.40202 32.598 0 21 0C9.40202 0 0 9.40202 0 21C0 32.598 9.40202 42 21 42Z" fill="#EBEBEB"/>
    <path fill-rule="evenodd" clip-rule="evenodd" d="M21.2118 31.4765H21.2074C19.4018 31.4759 17.6277 31.0229 16.052 30.1634L10.333 31.6636L11.8635 26.0733C10.9194 24.4372 10.4226 22.5813 10.4235 20.6799C10.4258 14.7318 15.2654 9.89246 21.2117 9.89246C24.0977 9.8937 26.8064 11.0172 28.8432 13.0564C30.88 15.0955 32.0011 17.8059 31.9999 20.6884C31.9975 26.6353 27.1599 31.4741 21.2118 31.4765ZM16.3172 28.2102L16.6446 28.4045C18.0213 29.2215 19.5994 29.6537 21.2084 29.6544H21.212C26.1542 29.6544 30.1766 25.6318 30.1786 20.6876C30.1795 18.2917 29.2478 16.0389 27.5548 14.344C25.8619 12.6491 23.6106 11.7153 21.2156 11.7144C16.2696 11.7144 12.2471 15.7365 12.2451 20.6804C12.2444 22.3747 12.7185 24.0247 13.6161 25.4523L13.8293 25.7916L12.9235 29.1004L16.3172 28.2102ZM26.2775 23.0111C26.4655 23.1019 26.5925 23.1633 26.6467 23.2538C26.7141 23.3662 26.7141 23.9059 26.4895 24.5356C26.2648 25.1653 25.1879 25.74 24.67 25.8173C24.2056 25.8868 23.6179 25.9157 22.9722 25.7105C22.5807 25.5863 22.0786 25.4204 21.4355 25.1427C18.9084 24.0515 17.2006 21.6022 16.8779 21.1393C16.8553 21.1069 16.8394 21.0842 16.8306 21.0724L16.8284 21.0695C16.6858 20.8792 15.7299 19.6039 15.7299 18.2839C15.7299 17.0423 16.3399 16.3915 16.6206 16.0919C16.6398 16.0714 16.6575 16.0525 16.6734 16.0352C16.9205 15.7653 17.2125 15.6978 17.3922 15.6978C17.5719 15.6978 17.7518 15.6995 17.9088 15.7074C17.9282 15.7084 17.9484 15.7082 17.9692 15.7081C18.1263 15.7072 18.3221 15.7061 18.5153 16.1701C18.5896 16.3487 18.6984 16.6134 18.8131 16.8927C19.045 17.4574 19.3013 18.0813 19.3464 18.1716C19.4138 18.3066 19.4587 18.4639 19.3689 18.6439C19.3554 18.6709 19.3429 18.6964 19.331 18.7207C19.2635 18.8585 19.2139 18.9598 19.0993 19.0936C19.0543 19.1461 19.0078 19.2028 18.9612 19.2595C18.8685 19.3725 18.7757 19.4854 18.695 19.5658C18.5601 19.7002 18.4196 19.8461 18.5768 20.1159C18.7341 20.3858 19.275 21.2685 20.0764 21.9833C20.9378 22.7516 21.6865 23.0764 22.066 23.241C22.1401 23.2731 22.2001 23.2992 22.2442 23.3212C22.5136 23.4562 22.6709 23.4336 22.8281 23.2538C22.9854 23.0739 23.502 22.4666 23.6816 22.1968C23.8613 21.927 24.0411 21.972 24.2881 22.0619C24.5353 22.1519 25.8605 22.804 26.1301 22.9389C26.1827 22.9652 26.2319 22.989 26.2775 23.0111Z" fill="#25D366"/>
  </symbol>
  <symbol id="icon-tg" width="42" height="42" viewBox="0 0 42 42">
    <path d="M21 42C32.598 42 42 32.598 42 21C42 9.40202 32.598 0 21 0C9.40202 0 0 9.40202 0 21C0 32.598 9.40202 42 21 42Z" fill="#EBEBEB"/>
    <path d="M10.3021 20.4425C12.3481 19.3538 14.6321 18.4452 16.7661 17.532C20.4374 16.0361 24.1233 14.5662 27.8464 13.1978C28.5708 12.9646 29.8724 12.7366 30 13.7735C29.9301 15.2413 29.6426 16.7005 29.4454 18.1597C28.945 21.3686 28.3665 24.5665 27.8024 27.7649C27.608 28.8302 26.2264 29.3817 25.3424 28.6999C23.2178 27.3138 21.077 25.941 18.9796 24.5227C18.2925 23.8483 18.9296 22.8799 19.5432 22.3984C21.2931 20.7326 23.1488 19.3174 24.8072 17.5656C25.2545 16.5221 23.9327 17.4015 23.4968 17.671C21.1012 19.2656 18.7643 20.9575 16.2387 22.3589C14.9486 23.0449 13.445 22.4587 12.1555 22.0759C10.9993 21.6135 9.30503 21.1476 10.302 20.4426L10.3021 20.4425Z" fill="#2BA3D6"/>
  </symbol>
  <symbol id="icon-close-tablet-main" width="44" height="44" viewBox="0 0 44 44">
    <circle cx="22" cy="22" r="22" fill="#F6F6F6"/>
    <rect x="28.5459" y="14.0015" width="2.05702" height="20.5702" rx="1.02851" transform="rotate(45 28.5459 14.0015)" fill="#EF0D37"/>
    <rect x="29.9998" y="28.5454" width="2.05702" height="20.5702" rx="1.02851" transform="rotate(135 29.9998 28.5454)" fill="#EF0D37"/>
  </symbol>
  <symbol id="icon-arrow-dropdown" width="11" height="7" viewBox="0 0 11 7">
    <path d="M5.94973 5.94975C5.55921 6.34027 4.92604 6.34027 4.53552 5.94975C4.14499 5.55922 4.14499 4.92606 4.53552 4.53553L8.77816 0.292893C9.16868 -0.0976312 9.80185 -0.097631 10.1924 0.292893C10.5829 0.683418 10.5829 1.31658 10.1924 1.70711L5.94973 5.94975Z"/>
    <path d="M5.94975 4.53555C6.34027 4.92607 6.34026 5.55922 5.94973 5.94975C5.55921 6.34027 4.92604 6.34027 4.53552 5.94975L0.292893 1.70713C-0.0976311 1.3166 -0.0976311 0.683436 0.292893 0.292911C0.683418 -0.0976134 1.31658 -0.0976135 1.70711 0.292911L5.94975 4.53555Z"/>
  </symbol>
  <symbol id="icon-burger" width="44" height="44" viewBox="0 0 44 44">
    <circle cx="22" cy="22" r="22" fill="#EF0D37"/>
    <path d="M31 19.25C31 19.6642 30.6642 20 30.25 20L13.75 20C13.3358 20 13 19.6642 13 19.25C13 18.8358 13.3358 18.5 13.75 18.5L30.25 18.5C30.6642 18.5 31 18.8358 31 19.25Z" fill="white"/>
    <path d="M13 24.75C13 24.3358 13.3358 24 13.75 24H30.25C30.6642 24 31 24.3358 31 24.75C31 25.1642 30.6642 25.5 30.25 25.5H13.75C13.3358 25.5 13 25.1642 13 24.75Z" fill="white"/>
  </symbol>
  <symbol id="icon-burger-close" width="44" height="44" viewBox="0 0 44 44">
    <circle cx="22" cy="22" r="22" fill="#F6F6F6"/>
    <rect x="28.5459" y="14.0015" width="2.05702" height="20.5702" rx="1.02851" transform="rotate(45 28.5459 14.0015)" fill="#EF0D37"/>
    <rect x="29.9998" y="28.5454" width="2.05702" height="20.5702" rx="1.02851" transform="rotate(135 29.9998 28.5454)" fill="#EF0D37"/>
  </symbol>
  <symbol id="logo-main-mobile" width="237" height="22" viewBox="0 0 237 22">
    <path fill-rule="evenodd" clip-rule="evenodd" d="M209.145 6.65865C209.145 6.91089 209.12 7.16313 209.069 7.41537C209.019 7.66496 208.942 7.90392 208.838 8.13226C208.735 8.35795 208.604 8.56904 208.448 8.76552C208.294 8.95934 208.111 9.12927 207.898 9.27531C207.686 9.41869 207.445 9.5302 207.177 9.60986C206.912 9.69217 206.617 9.73332 206.293 9.73332C205.969 9.73332 205.673 9.69217 205.405 9.60986C205.137 9.5302 204.897 9.41869 204.684 9.27531C204.474 9.12927 204.291 8.95934 204.134 8.76552C203.978 8.56904 203.848 8.35795 203.744 8.13226C203.641 7.90392 203.564 7.66496 203.513 7.41537C203.463 7.16313 203.438 6.91089 203.438 6.65865C203.438 6.20462 203.501 5.78909 203.629 5.41206C203.759 5.03503 203.946 4.7111 204.19 4.44027C204.435 4.16945 204.733 3.95969 205.086 3.811C205.439 3.65966 205.842 3.58398 206.293 3.58398C206.742 3.58398 207.143 3.65966 207.496 3.811C207.852 3.95969 208.15 4.16945 208.392 4.44027C208.636 4.7111 208.822 5.03503 208.95 5.41206C209.08 5.78909 209.145 6.20462 209.145 6.65865ZM208.364 6.65865C208.364 6.31083 208.318 5.99088 208.225 5.69881C208.132 5.40409 207.996 5.15185 207.819 4.9421C207.643 4.72968 207.427 4.56506 207.169 4.44824C206.912 4.32876 206.62 4.26901 206.293 4.26901C205.964 4.26901 205.67 4.32876 205.413 4.44824C205.155 4.56506 204.938 4.72968 204.76 4.9421C204.585 5.15185 204.45 5.40409 204.358 5.69881C204.265 5.99088 204.218 6.31083 204.218 6.65865C204.218 7.01444 204.261 7.3397 204.346 7.63442C204.431 7.92649 204.559 8.1774 204.732 8.38716C204.904 8.59692 205.12 8.76021 205.377 8.87703C205.637 8.99121 205.943 9.04829 206.293 9.04829C206.641 9.04829 206.945 8.99121 207.205 8.87703C207.465 8.76021 207.68 8.59692 207.85 8.38716C208.023 8.1774 208.152 7.92649 208.237 7.63442C208.322 7.3397 208.364 7.01444 208.364 6.65865ZM178.083 4.56772L178.976 7.17243H177.096L178.083 4.56772ZM177.609 3.63974L175.415 9.58596H176.243L176.897 7.79373H179.199L179.816 9.58596H180.684L178.561 3.63974H177.609ZM156.338 6.47146C156.752 6.47146 157.051 6.38384 157.234 6.2086C157.417 6.03336 157.509 5.77847 157.509 5.44392C157.509 5.10937 157.417 4.85448 157.234 4.67924C157.051 4.504 156.752 4.41638 156.338 4.41638H154.737V6.47146H156.338ZM153.956 3.73135H156.417C156.739 3.73135 157.016 3.7725 157.25 3.85481C157.486 3.93712 157.681 4.05395 157.835 4.20529C157.989 4.35398 158.103 4.5332 158.178 4.74296C158.255 4.95272 158.293 5.18637 158.293 5.44392C158.293 5.70147 158.255 5.93512 158.178 6.14488C158.103 6.35464 157.989 6.53519 157.835 6.68653C157.681 6.83522 157.486 6.95072 157.25 7.03303C157.016 7.11534 156.739 7.15649 156.417 7.15649H154.737V9.58596H153.956V3.73135ZM159.396 3.73135H163.67V4.41638H160.177V6.22454H163.399V6.90956H160.177V8.90093H163.726V9.58596H159.396V3.73135ZM165.617 3.73135H164.837V9.58596H165.617V7.5468L166.565 6.63476L168.628 9.58596H169.632L167.127 6.09311L169.564 3.73135H168.473L165.617 6.58298V3.73135ZM173.882 4.41638H171.791C171.791 4.87041 171.785 5.31647 171.775 5.75457C171.764 6.19267 171.742 6.60821 171.707 7.00117C171.673 7.39148 171.621 7.75125 171.552 8.08049C171.483 8.40973 171.388 8.69516 171.269 8.93678C171.15 9.17574 171.001 9.36293 170.823 9.49834C170.648 9.6311 170.434 9.69748 170.182 9.69748C170.105 9.69748 170.04 9.69084 169.987 9.67756L169.819 9.63375V8.9089C169.848 8.92217 169.884 8.93412 169.927 8.94474C169.972 8.95271 170.036 8.95669 170.118 8.95669C170.24 8.95669 170.345 8.91288 170.433 8.82526C170.523 8.73498 170.6 8.61019 170.664 8.45088C170.727 8.29157 170.779 8.10306 170.819 7.88533C170.861 7.66496 170.895 7.42599 170.919 7.16844C170.945 6.91089 170.964 6.63874 170.974 6.35198C170.988 6.06523 170.997 5.77449 171.002 5.47976C171.01 5.18239 171.014 4.88634 171.014 4.59162C171.017 4.29424 171.021 4.00748 171.026 3.73135H174.666V9.58596H173.882V4.41638ZM181.413 3.73135H182.536L184.193 8.65798H184.209L185.866 3.73135H186.989V9.58596H186.256V4.65932H186.24L184.591 9.58596H183.811L182.162 4.65932H182.146V9.58596H181.413V3.73135ZM190.414 4.56772L191.306 7.17243H189.426L190.414 4.56772ZM189.94 3.63974L187.746 9.58596H188.574L189.227 7.79373H191.529L192.146 9.58596H193.015L190.892 3.63974H189.94ZM193.815 10.4184C193.998 10.3865 194.127 10.2577 194.202 10.032C194.241 9.91254 194.261 9.79705 194.261 9.68553C194.261 9.66694 194.26 9.64968 194.257 9.63375C194.257 9.62048 194.255 9.60455 194.249 9.58596H193.815V8.71773H194.668V9.52224C194.668 9.8382 194.604 10.1157 194.476 10.3546C194.349 10.5936 194.129 10.741 193.815 10.7967V10.4184ZM199.064 3.73135H198.284V9.58596H199.064V7.5468L200.012 6.63476L202.075 9.58596H203.079L200.574 6.09311L203.011 3.73135H201.92L199.064 6.58298V3.73135ZM214.346 3.73135H209.583V4.41638H211.57V9.58596H212.355V4.41638H214.346V3.73135ZM220.48 6.65865C220.48 6.91089 220.454 7.16313 220.404 7.41537C220.353 7.66496 220.276 7.90392 220.173 8.13226C220.069 8.35795 219.939 8.56904 219.783 8.76552C219.629 8.95934 219.445 9.12927 219.233 9.27531C219.021 9.41869 218.78 9.5302 218.512 9.60986C218.247 9.69217 217.952 9.73332 217.628 9.73332C217.304 9.73332 217.008 9.69217 216.74 9.60986C216.472 9.5302 216.231 9.41869 216.019 9.27531C215.809 9.12927 215.626 8.95934 215.469 8.76552C215.313 8.56904 215.183 8.35795 215.079 8.13226C214.975 7.90392 214.898 7.66496 214.848 7.41537C214.798 7.16313 214.772 6.91089 214.772 6.65865C214.772 6.20462 214.836 5.78909 214.964 5.41206C215.094 5.03503 215.281 4.7111 215.525 4.44027C215.769 4.16945 216.068 3.95969 216.421 3.811C216.774 3.65966 217.177 3.58398 217.628 3.58398C218.077 3.58398 218.478 3.65966 218.831 3.811C219.187 3.95969 219.485 4.16945 219.727 4.44027C219.971 4.7111 220.157 5.03503 220.284 5.41206C220.415 5.78909 220.48 6.20462 220.48 6.65865ZM219.699 6.65865C219.699 6.31083 219.653 5.99088 219.56 5.69881C219.467 5.40409 219.331 5.15185 219.153 4.9421C218.978 4.72968 218.762 4.56506 218.504 4.44824C218.247 4.32876 217.955 4.26901 217.628 4.26901C217.299 4.26901 217.005 4.32876 216.748 4.44824C216.49 4.56506 216.273 4.72968 216.095 4.9421C215.919 5.15185 215.785 5.40409 215.692 5.69881C215.599 5.99088 215.553 6.31083 215.553 6.65865C215.553 7.01444 215.595 7.3397 215.68 7.63442C215.765 7.92649 215.894 8.1774 216.067 8.38716C216.239 8.59692 216.454 8.76021 216.712 8.87703C216.972 8.99121 217.277 9.04829 217.628 9.04829C217.976 9.04829 218.28 8.99121 218.54 8.87703C218.8 8.76021 219.015 8.59692 219.185 8.38716C219.358 8.1774 219.487 7.92649 219.572 7.63442C219.657 7.3397 219.699 7.01444 219.699 6.65865ZM224.685 6.2086C224.502 6.38384 224.203 6.47146 223.789 6.47146H222.188V4.41638H223.789C224.203 4.41638 224.502 4.504 224.685 4.67924C224.869 4.85448 224.96 5.10937 224.96 5.44392C224.96 5.77847 224.869 6.03336 224.685 6.2086ZM223.869 3.73135H221.408V9.58596H222.188V7.15649H223.869C224.19 7.15649 224.468 7.11534 224.701 7.03303C224.938 6.95072 225.133 6.83522 225.287 6.68653C225.441 6.53519 225.555 6.35464 225.629 6.14488C225.706 5.93512 225.745 5.70147 225.745 5.44392C225.745 5.18637 225.706 4.95272 225.629 4.74296C225.555 4.5332 225.441 4.35398 225.287 4.20529C225.133 4.05395 224.938 3.93712 224.701 3.85481C224.468 3.7725 224.19 3.73135 223.869 3.73135ZM229.947 7.17243L229.054 4.56772L228.067 7.17243H229.947ZM226.386 9.58596L228.58 3.63974H229.532L231.655 9.58596H230.787L230.17 7.79373H227.868L227.214 9.58596H226.386ZM236.215 9.58596H237V3.73135H234.575C234.482 3.73135 234.373 3.73267 234.248 3.73533C234.126 3.73798 233.998 3.74595 233.866 3.75922C233.733 3.7725 233.601 3.79507 233.471 3.82693C233.344 3.85879 233.231 3.9026 233.133 3.95836C233.04 4.01146 232.948 4.0805 232.858 4.16546C232.77 4.24777 232.692 4.34867 232.623 4.46815C232.554 4.58498 232.498 4.71906 232.456 4.87041C232.413 5.02175 232.392 5.19035 232.392 5.37621C232.392 5.63642 232.428 5.85149 232.499 6.02142C232.574 6.18869 232.663 6.3241 232.766 6.42765C232.873 6.53121 232.983 6.60953 233.097 6.66264C233.211 6.71574 233.311 6.75822 233.396 6.79008C233.21 6.84584 233.062 6.9162 232.954 7.00117C232.847 7.08613 232.766 7.18172 232.711 7.28792C232.655 7.39413 232.616 7.5083 232.595 7.63044C232.574 7.75258 232.558 7.88002 232.547 8.01278L232.48 8.80933C232.469 8.9235 232.454 9.02174 232.436 9.10405C232.417 9.18636 232.396 9.25805 232.372 9.31912C232.348 9.37753 232.322 9.42798 232.292 9.47046C232.263 9.51294 232.233 9.55144 232.201 9.58596H233.101C233.127 9.5302 233.149 9.4771 233.165 9.42665C233.183 9.37355 233.199 9.32045 233.212 9.26734C233.226 9.21424 233.236 9.15715 233.244 9.09608C233.252 9.03236 233.259 8.962 233.264 8.885L233.304 8.24776C233.315 8.08845 233.331 7.95437 233.352 7.84551C233.373 7.73665 233.4 7.64504 233.431 7.5707C233.466 7.49635 233.506 7.43529 233.551 7.38749C233.596 7.33704 233.649 7.29191 233.71 7.25208C233.761 7.22022 233.812 7.19499 233.866 7.17641C233.921 7.15517 233.988 7.13924 234.065 7.12862C234.144 7.11534 234.239 7.10737 234.347 7.10472C234.459 7.09941 234.596 7.09675 234.758 7.09675H236.215V9.58596ZM234.423 4.42434H236.215V6.43562H234.527C234.415 6.43828 234.313 6.4396 234.22 6.4396C234.13 6.4396 234.045 6.43429 233.965 6.42367C233.885 6.4104 233.81 6.39048 233.738 6.36393C233.669 6.33472 233.6 6.29357 233.531 6.24047C233.451 6.18205 233.388 6.11833 233.34 6.04929C233.292 5.97761 233.255 5.90592 233.228 5.83423C233.202 5.75988 233.185 5.68952 233.177 5.62314C233.169 5.55411 233.165 5.49171 233.165 5.43595C233.165 5.35364 233.173 5.27001 233.189 5.18504C233.204 5.10008 233.23 5.01777 233.264 4.93811C233.301 4.85846 233.348 4.78544 233.404 4.71906C233.459 4.65268 233.527 4.59693 233.607 4.55179C233.662 4.51993 233.724 4.49603 233.79 4.4801C233.856 4.46151 233.925 4.44824 233.997 4.44027C234.069 4.43231 234.14 4.42832 234.212 4.42832C234.284 4.42567 234.354 4.42434 234.423 4.42434ZM170.636 17.2485C170.686 16.9963 170.711 16.7441 170.711 16.4918C170.711 16.0378 170.646 15.6223 170.516 15.2452C170.389 14.8682 170.203 14.5443 169.959 14.2734C169.717 14.0026 169.418 13.7929 169.063 13.6442C168.709 13.4928 168.308 13.4172 167.86 13.4172C167.408 13.4172 167.006 13.4928 166.653 13.6442C166.3 13.7929 166.001 14.0026 165.757 14.2734C165.513 14.5443 165.325 14.8682 165.195 15.2452C165.068 15.6223 165.004 16.0378 165.004 16.4918C165.004 16.7441 165.029 16.9963 165.08 17.2485C165.13 17.4981 165.207 17.7371 165.311 17.9654C165.414 18.1911 165.544 18.4022 165.701 18.5987C165.858 18.7925 166.041 18.9624 166.251 19.1085C166.463 19.2519 166.703 19.3634 166.972 19.443C167.24 19.5253 167.536 19.5665 167.86 19.5665C168.184 19.5665 168.478 19.5253 168.744 19.443C169.012 19.3634 169.252 19.2519 169.465 19.1085C169.677 18.9624 169.86 18.7925 170.014 18.5987C170.171 18.4022 170.301 18.1911 170.405 17.9654C170.508 17.7371 170.585 17.4981 170.636 17.2485ZM169.791 15.532C169.884 15.8241 169.931 16.144 169.931 16.4918C169.931 16.8476 169.888 17.1729 169.803 17.4676C169.718 17.7597 169.59 18.0106 169.417 18.2203C169.247 18.4301 169.032 18.5934 168.772 18.7102C168.512 18.8244 168.208 18.8815 167.86 18.8815C167.509 18.8815 167.204 18.8244 166.944 18.7102C166.686 18.5934 166.471 18.4301 166.299 18.2203C166.126 18.0106 165.997 17.7597 165.912 17.4676C165.827 17.1729 165.785 16.8476 165.785 16.4918C165.785 16.144 165.831 15.8241 165.924 15.532C166.017 15.2373 166.151 14.985 166.326 14.7753C166.504 14.5629 166.722 14.3982 166.98 14.2814C167.237 14.1619 167.531 14.1022 167.86 14.1022C168.186 14.1022 168.478 14.1619 168.736 14.2814C168.994 14.3982 169.21 14.5629 169.385 14.7753C169.563 14.985 169.698 15.2373 169.791 15.532ZM153.956 13.5645H158.636V19.4191H157.851V14.2495H154.737V19.4191H153.956V13.5645ZM162.232 16.3046C162.646 16.3046 162.945 16.217 163.128 16.0418C163.312 15.8665 163.403 15.6116 163.403 15.2771C163.403 14.9425 163.312 14.6876 163.128 14.5124C162.945 14.3372 162.646 14.2495 162.232 14.2495H160.631V16.3046H162.232ZM159.851 13.5645H162.312C162.633 13.5645 162.911 13.6057 163.144 13.688C163.381 13.7703 163.576 13.8871 163.73 14.0385C163.884 14.1872 163.998 14.3664 164.072 14.5761C164.149 14.7859 164.188 15.0195 164.188 15.2771C164.188 15.5346 164.149 15.7683 164.072 15.9781C163.998 16.1878 163.884 16.3684 163.73 16.5197C163.576 16.6684 163.381 16.7839 163.144 16.8662C162.911 16.9485 162.633 16.9897 162.312 16.9897H160.631V19.4191H159.851V13.5645ZM171.181 20.6737V18.7341H171.711C171.767 18.6067 171.819 18.4779 171.866 18.3478C171.914 18.215 171.958 18.0663 171.998 17.9017C172.04 17.7344 172.079 17.5433 172.113 17.3282C172.151 17.1131 172.185 16.8582 172.217 16.5635C172.254 16.2529 172.283 15.9475 172.305 15.6475C172.326 15.3448 172.342 15.062 172.352 14.7992C172.366 14.5363 172.374 14.2987 172.376 14.0863C172.382 13.8738 172.385 13.6999 172.388 13.5645H176.068V18.7341H176.729V20.6737H175.996V19.4191H171.914V20.6737H171.181ZM173.121 14.2495C173.121 14.6292 173.105 15.0076 173.073 15.3846C173.044 15.7617 173.008 16.1413 172.966 16.5237C172.936 16.8264 172.906 17.0839 172.874 17.2963C172.845 17.5061 172.813 17.6933 172.778 17.8579C172.747 18.0199 172.709 18.1699 172.667 18.308C172.627 18.4434 172.581 18.5854 172.528 18.7341H175.264V14.2495H173.121ZM179.565 14.4009L180.457 17.0056H178.577L179.565 14.4009ZM179.091 13.4729L176.897 19.4191H177.725L178.378 17.6269H180.68L181.298 19.4191H182.166L180.043 13.4729H179.091ZM182.895 13.5645H187.168V14.2495H183.675V16.0577H186.897V16.7427H183.675V18.7341H187.224V19.4191H182.895V13.5645ZM192.608 13.5645H187.845V14.2495H189.833V19.4191H190.617V14.2495H192.608V13.5645Z" fill="#181818"/>
    <path d="M144.997 0V21.5039H144.255V0H144.997Z" fill="#EAEAEA"/>
    <path d="M0 6.58161V4.28589H9.85025V6.58161H6.13082V17.0547H3.72832V6.58161H0Z" fill="#EF0D37"/>
    <path d="M10.3777 10.6748C10.3777 9.45274 10.6654 8.34048 11.2409 7.33795C11.8163 6.33543 12.6082 5.54942 13.6167 4.97994C14.6251 4.40453 15.7433 4.11682 16.9713 4.11682C18.1992 4.11682 19.3174 4.40453 20.3259 4.97994C21.3403 5.54942 22.1352 6.33543 22.7106 7.33795C23.2919 8.34048 23.5826 9.45274 23.5826 10.6748C23.5826 11.8908 23.2919 13.0001 22.7106 14.0027C22.1352 15.0052 21.3403 15.7942 20.3259 16.3696C19.3174 16.9391 18.1992 17.2238 16.9713 17.2238C15.7433 17.2238 14.6251 16.9391 13.6167 16.3696C12.6082 15.7942 11.8163 15.0052 11.2409 14.0027C10.6654 13.0001 10.3777 11.8908 10.3777 10.6748ZM12.7802 10.6748C12.7802 11.8671 13.1836 12.8696 13.9904 13.6823C14.7972 14.4891 15.7937 14.8925 16.9802 14.8925C18.1666 14.8925 19.1632 14.4891 19.9699 13.6823C20.7767 12.8696 21.1801 11.8671 21.1801 10.6748C21.1801 9.47647 20.7767 8.47395 19.9699 7.66718C19.1632 6.85448 18.1666 6.44814 16.9802 6.44814C16.2031 6.44814 15.4912 6.63203 14.8446 6.99982C14.2039 7.36761 13.6997 7.87777 13.3319 8.5303C12.9641 9.1769 12.7802 9.89172 12.7802 10.6748Z" fill="#EF0D37"/>
    <path d="M36.71 4.28589V17.0547H34.3075V6.51932H28.3546V17.0547H25.9521V4.28589H36.71Z" fill="#EF0D37"/>
    <path d="M45.4168 17.0547V4.28589H50.5333C51.7968 4.28589 52.8349 4.67444 53.6476 5.45154C54.4663 6.22272 54.8756 7.20744 54.8756 8.40573C54.8756 9.60401 54.4663 10.5887 53.6476 11.3599C52.829 12.1311 51.7909 12.5167 50.5333 12.5167H47.8193V17.0547H45.4168ZM47.8193 10.2298H50.5333C51.0968 10.2298 51.5595 10.0578 51.9214 9.71376C52.2892 9.36969 52.4731 8.93368 52.4731 8.40573C52.4731 7.87777 52.2892 7.44176 51.9214 7.0977C51.5595 6.75364 51.0968 6.58161 50.5333 6.58161H47.8193V10.2298Z" fill="#EF0D37"/>
    <path d="M64.8051 17.0547H56.5743V4.28589H64.8051V6.6083H58.9768V9.42901H63.7106V11.6624H58.9768V14.7323H64.8051V17.0547Z" fill="#EF0D37"/>
    <path d="M74.4878 4.88206C74.7488 4.48461 75.0988 4.28589 75.5378 4.28589H77.7801L73.6425 9.94511C73.5475 10.0815 73.4259 10.2061 73.2776 10.3188C73.1353 10.4256 72.9929 10.4849 72.8505 10.4968V10.5146C72.9988 10.5383 73.1501 10.6065 73.3043 10.7192C73.4586 10.832 73.5772 10.9476 73.6602 11.0663L78.1182 17.0547H75.9204C75.689 17.0547 75.4666 16.9954 75.253 16.8768C75.0454 16.7581 74.8763 16.6039 74.7458 16.4141L70.9641 11.1375C70.7683 10.8527 70.4777 10.6421 70.0921 10.5057C70.454 10.387 70.7387 10.1765 70.9463 9.87392L74.4878 4.88206ZM69.665 17.0547H67.2625V4.29479H69.665V17.0547Z" fill="#EF0D37"/>
    <path d="M90.2385 4.28589V17.0547H87.836V6.50152H83.8852L83.5471 12.7747C83.464 14.2399 83.114 15.3404 82.4971 16.0759C81.8801 16.8115 81.1179 17.1793 80.2103 17.1793C79.445 17.1793 78.751 17.0547 78.1281 16.8056L78.3683 15.6132C78.4039 15.3819 78.484 15.2098 78.6086 15.0971C78.7391 14.9844 78.9319 14.9399 79.187 14.9637C79.2404 14.9637 79.3382 14.9755 79.4806 14.9993C79.623 15.023 79.7268 15.0348 79.792 15.0348C80.1242 15.0348 80.4209 14.845 80.6819 14.4654C80.9488 14.0798 81.103 13.4628 81.1446 12.6146L81.6073 4.28589H90.2385Z" fill="#EF0D37"/>
    <path d="M99.4592 4.28589L105.038 17.0547H103.321C103.036 17.0547 102.778 16.9806 102.547 16.8323C102.321 16.678 102.152 16.4645 102.04 16.1916L101.283 14.4387H95.5173L94.761 16.1916C94.6423 16.4645 94.4673 16.678 94.236 16.8323C94.0105 16.9806 93.7555 17.0547 93.4707 17.0547H91.7534L97.3325 4.28589H99.4592ZM96.3893 12.4277H100.402L98.8007 8.72606C98.5634 8.18031 98.4448 7.65532 98.4448 7.15109H98.3558C98.3499 7.66125 98.2283 8.18624 97.991 8.72606L96.3893 12.4277Z" fill="#EF0D37"/>
    <path d="M118.587 4.28589H120.482V17.0547H118.08V8.77945C118.08 8.51844 118.139 8.18624 118.258 7.78286H118.231L114.574 14.9103C114.349 15.3492 113.999 15.5687 113.524 15.5687C113.044 15.5687 112.691 15.3492 112.465 14.9103L108.808 7.78286H108.781C108.9 8.15658 108.959 8.48878 108.959 8.77945V17.0547H106.557V4.28589H108.461C108.805 4.28589 109.072 4.34817 109.262 4.47275C109.458 4.59732 109.642 4.82274 109.814 5.14901L113.302 11.7158C113.408 11.9472 113.477 12.2349 113.506 12.579H113.533C113.569 12.223 113.64 11.9353 113.747 11.7158L117.226 5.14901C117.398 4.82274 117.579 4.59732 117.769 4.47275C117.964 4.34817 118.237 4.28589 118.587 4.28589Z" fill="#EF0D37"/>
    <path d="M129.716 4.28589L135.295 17.0547H133.578C133.293 17.0547 133.035 16.9806 132.804 16.8323C132.579 16.678 132.41 16.4645 132.297 16.1916L131.54 14.4387H125.774L125.018 16.1916C124.899 16.4645 124.724 16.678 124.493 16.8323C124.268 16.9806 124.013 17.0547 123.728 17.0547H122.011L127.59 4.28589H129.716ZM126.646 12.4277H130.66L129.058 8.72606C128.821 8.18031 128.702 7.65532 128.702 7.15109H128.613C128.607 7.66125 128.485 8.18624 128.248 8.72606L126.646 12.4277Z" fill="#EF0D37"/>
  </symbol>
  <symbol id="logo-main-desk" width="384" height="29" viewBox="0 0 384 29">
    <path d="M217.645 14.7998C218.203 14.7998 218.606 14.6816 218.853 14.4453C219.1 14.209 219.224 13.8652 219.224 13.4141C219.224 12.9629 219.1 12.6191 218.853 12.3828C218.606 12.1465 218.203 12.0283 217.645 12.0283H215.485V14.7998H217.645ZM214.433 11.1045H217.752C218.185 11.1045 218.559 11.16 218.875 11.271C219.193 11.382 219.456 11.5396 219.664 11.7437C219.872 11.9442 220.026 12.1859 220.126 12.4688C220.23 12.7516 220.282 13.0667 220.282 13.4141C220.282 13.7614 220.23 14.0765 220.126 14.3594C220.026 14.6423 219.872 14.8857 219.664 15.0898C219.456 15.2904 219.193 15.4461 218.875 15.5571C218.559 15.6681 218.185 15.7236 217.752 15.7236H215.485V19H214.433V11.1045Z" fill="#181818"/>
    <path d="M221.77 11.1045H227.533V12.0283H222.822V14.4668H227.167V15.3906H222.822V18.0762H227.608V19H221.77V11.1045Z" fill="#181818"/>
    <path d="M229.106 11.1045H230.159V14.9502L234.01 11.1045H235.482L232.195 14.2896L235.573 19H234.22L231.438 15.02L230.159 16.25V19H229.106V11.1045Z" fill="#181818"/>
    <path d="M241.304 12.0283H238.484C238.484 12.6406 238.477 13.2422 238.463 13.833C238.449 14.4238 238.418 14.9842 238.372 15.5142C238.325 16.0405 238.255 16.5257 238.162 16.9697C238.069 17.4137 237.942 17.7987 237.781 18.1245C237.62 18.4468 237.419 18.6992 237.179 18.8818C236.943 19.0609 236.655 19.1504 236.314 19.1504C236.211 19.1504 236.123 19.1414 236.051 19.1235C235.983 19.1056 235.908 19.0859 235.826 19.0645V18.0869C235.865 18.1048 235.913 18.1209 235.971 18.1353C236.032 18.146 236.118 18.1514 236.229 18.1514C236.393 18.1514 236.535 18.0923 236.653 17.9741C236.775 17.8524 236.878 17.6841 236.964 17.4692C237.05 17.2544 237.12 17.0002 237.174 16.7065C237.231 16.4093 237.276 16.0871 237.308 15.7397C237.344 15.3924 237.369 15.0254 237.383 14.6387C237.401 14.252 237.414 13.8599 237.421 13.4624C237.432 13.0614 237.437 12.6621 237.437 12.2646C237.441 11.8636 237.446 11.4769 237.453 11.1045H242.362V19H241.304V12.0283Z" fill="#181818"/>
    <path d="M248.174 15.7451L246.971 12.2324L245.639 15.7451H248.174ZM243.372 19L246.332 10.981H247.615L250.478 19H249.307L248.475 16.583H245.37L244.489 19H243.372Z" fill="#181818"/>
    <path d="M251.461 11.1045H252.976L255.21 17.7485H255.231L257.466 11.1045H258.98V19H257.992V12.356H257.971L255.747 19H254.694L252.471 12.356H252.449V19H251.461V11.1045Z" fill="#181818"/>
    <path d="M264.803 15.7451L263.6 12.2324L262.268 15.7451H264.803ZM260.001 19L262.96 10.981H264.244L267.107 19H265.936L265.104 16.583H261.999L261.118 19H260.001Z" fill="#181818"/>
    <path d="M268.187 20.1226C268.434 20.0796 268.607 19.9059 268.708 19.6016C268.761 19.4404 268.788 19.2847 268.788 19.1343C268.788 19.1092 268.786 19.0859 268.783 19.0645C268.783 19.0465 268.779 19.0251 268.772 19H268.187V17.8291H269.336V18.9141C269.336 19.3402 269.25 19.7144 269.078 20.0366C268.906 20.3589 268.609 20.5576 268.187 20.6328V20.1226Z" fill="#181818"/>
    <path d="M274.213 11.1045H275.266V14.9502L279.117 11.1045H280.588L277.301 14.2896L280.68 19H279.326L276.544 15.02L275.266 16.25V19H274.213V11.1045Z" fill="#181818"/>
    <path d="M288.86 15.0522C288.86 15.3924 288.826 15.7326 288.758 16.0728C288.69 16.4093 288.586 16.7316 288.446 17.0396C288.307 17.3439 288.131 17.6286 287.92 17.8936C287.712 18.1549 287.465 18.3841 287.179 18.5811C286.892 18.7744 286.568 18.9248 286.207 19.0322C285.848 19.1432 285.451 19.1987 285.014 19.1987C284.577 19.1987 284.178 19.1432 283.816 19.0322C283.455 18.9248 283.131 18.7744 282.844 18.5811C282.561 18.3841 282.314 18.1549 282.103 17.8936C281.892 17.6286 281.716 17.3439 281.577 17.0396C281.437 16.7316 281.333 16.4093 281.265 16.0728C281.197 15.7326 281.163 15.3924 281.163 15.0522C281.163 14.4399 281.249 13.8796 281.421 13.3711C281.596 12.8626 281.849 12.4258 282.178 12.0605C282.508 11.6953 282.91 11.4124 283.387 11.2119C283.863 11.0078 284.405 10.9058 285.014 10.9058C285.619 10.9058 286.16 11.0078 286.636 11.2119C287.116 11.4124 287.519 11.6953 287.845 12.0605C288.174 12.4258 288.425 12.8626 288.597 13.3711C288.772 13.8796 288.86 14.4399 288.86 15.0522ZM287.807 15.0522C287.807 14.5832 287.744 14.1517 287.619 13.7578C287.494 13.3604 287.311 13.0202 287.071 12.7373C286.835 12.4508 286.543 12.2288 286.196 12.0713C285.848 11.9102 285.455 11.8296 285.014 11.8296C284.57 11.8296 284.174 11.9102 283.827 12.0713C283.48 12.2288 283.186 12.4508 282.946 12.7373C282.71 13.0202 282.529 13.3604 282.404 13.7578C282.278 14.1517 282.216 14.5832 282.216 15.0522C282.216 15.5321 282.273 15.9707 282.388 16.3682C282.502 16.762 282.676 17.1004 282.909 17.3833C283.141 17.6662 283.431 17.8864 283.779 18.0439C284.13 18.1979 284.542 18.2749 285.014 18.2749C285.483 18.2749 285.893 18.1979 286.244 18.0439C286.595 17.8864 286.885 17.6662 287.114 17.3833C287.347 17.1004 287.521 16.762 287.635 16.3682C287.75 15.9707 287.807 15.5321 287.807 15.0522Z" fill="#181818"/>
    <path d="M289.451 11.1045H295.875V12.0283H293.189V19H292.131V12.0283H289.451V11.1045Z" fill="#181818"/>
    <path d="M304.146 15.0522C304.146 15.3924 304.112 15.7326 304.044 16.0728C303.976 16.4093 303.872 16.7316 303.732 17.0396C303.593 17.3439 303.417 17.6286 303.206 17.8936C302.998 18.1549 302.751 18.3841 302.465 18.5811C302.178 18.7744 301.854 18.9248 301.493 19.0322C301.135 19.1432 300.737 19.1987 300.3 19.1987C299.863 19.1987 299.464 19.1432 299.103 19.0322C298.741 18.9248 298.417 18.7744 298.13 18.5811C297.847 18.3841 297.6 18.1549 297.389 17.8936C297.178 17.6286 297.002 17.3439 296.863 17.0396C296.723 16.7316 296.619 16.4093 296.551 16.0728C296.483 15.7326 296.449 15.3924 296.449 15.0522C296.449 14.4399 296.535 13.8796 296.707 13.3711C296.882 12.8626 297.135 12.4258 297.464 12.0605C297.794 11.6953 298.197 11.4124 298.673 11.2119C299.149 11.0078 299.692 10.9058 300.3 10.9058C300.905 10.9058 301.446 11.0078 301.922 11.2119C302.402 11.4124 302.805 11.6953 303.131 12.0605C303.46 12.4258 303.711 12.8626 303.883 13.3711C304.058 13.8796 304.146 14.4399 304.146 15.0522ZM303.093 15.0522C303.093 14.5832 303.031 14.1517 302.905 13.7578C302.78 13.3604 302.597 13.0202 302.357 12.7373C302.121 12.4508 301.829 12.2288 301.482 12.0713C301.135 11.9102 300.741 11.8296 300.3 11.8296C299.856 11.8296 299.461 11.9102 299.113 12.0713C298.766 12.2288 298.472 12.4508 298.232 12.7373C297.996 13.0202 297.815 13.3604 297.69 13.7578C297.565 14.1517 297.502 14.5832 297.502 15.0522C297.502 15.5321 297.559 15.9707 297.674 16.3682C297.788 16.762 297.962 17.1004 298.195 17.3833C298.428 17.6662 298.718 17.8864 299.065 18.0439C299.416 18.1979 299.828 18.2749 300.3 18.2749C300.769 18.2749 301.179 18.1979 301.53 18.0439C301.881 17.8864 302.171 17.6662 302.4 17.3833C302.633 17.1004 302.807 16.762 302.921 16.3682C303.036 15.9707 303.093 15.5321 303.093 15.0522Z" fill="#181818"/>
    <path d="M308.609 14.7998C309.168 14.7998 309.571 14.6816 309.818 14.4453C310.065 14.209 310.188 13.8652 310.188 13.4141C310.188 12.9629 310.065 12.6191 309.818 12.3828C309.571 12.1465 309.168 12.0283 308.609 12.0283H306.45V14.7998H308.609ZM305.397 11.1045H308.717C309.15 11.1045 309.524 11.16 309.839 11.271C310.158 11.382 310.421 11.5396 310.629 11.7437C310.837 11.9442 310.991 12.1859 311.091 12.4688C311.195 12.7516 311.247 13.0667 311.247 13.4141C311.247 13.7614 311.195 14.0765 311.091 14.3594C310.991 14.6423 310.837 14.8857 310.629 15.0898C310.421 15.2904 310.158 15.4461 309.839 15.5571C309.524 15.6681 309.15 15.7236 308.717 15.7236H306.45V19H305.397V11.1045Z" fill="#181818"/>
    <path d="M316.913 15.7451L315.71 12.2324L314.378 15.7451H316.913ZM312.111 19L315.071 10.981H316.354L319.217 19H318.046L317.214 16.583H314.109L313.229 19H312.111Z" fill="#181818"/>
    <path d="M326.425 19H325.367V15.6431H323.401C323.183 15.6431 322.999 15.6466 322.848 15.6538C322.701 15.6574 322.574 15.6681 322.467 15.686C322.363 15.7004 322.273 15.7218 322.198 15.7505C322.127 15.7756 322.057 15.8096 321.989 15.8525C321.906 15.9062 321.835 15.9671 321.774 16.0352C321.713 16.0996 321.659 16.182 321.613 16.2822C321.57 16.3825 321.534 16.506 321.505 16.6528C321.477 16.7996 321.455 16.9805 321.441 17.1953L321.387 18.0547C321.38 18.1585 321.371 18.2534 321.36 18.3394C321.35 18.4217 321.335 18.4987 321.317 18.5703C321.299 18.6419 321.278 18.7135 321.253 18.7852C321.231 18.8532 321.203 18.9248 321.167 19H319.953C319.996 18.9535 320.037 18.9015 320.077 18.8442C320.116 18.7869 320.152 18.7189 320.184 18.6401C320.216 18.5578 320.245 18.4611 320.27 18.3501C320.295 18.2391 320.315 18.1066 320.329 17.9526L320.42 16.8784C320.435 16.6994 320.456 16.5275 320.485 16.3628C320.514 16.1981 320.565 16.0441 320.641 15.9009C320.716 15.7576 320.825 15.6287 320.968 15.5142C321.115 15.3996 321.314 15.3047 321.564 15.2295C321.45 15.1865 321.316 15.1292 321.162 15.0576C321.008 14.986 320.859 14.8804 320.716 14.7407C320.576 14.6011 320.456 14.4185 320.356 14.1929C320.259 13.9637 320.211 13.6737 320.211 13.3228C320.211 13.0721 320.24 12.8447 320.297 12.6406C320.354 12.4365 320.429 12.2557 320.522 12.0981C320.616 11.937 320.721 11.8009 320.839 11.6899C320.961 11.5754 321.085 11.4823 321.21 11.4106C321.342 11.3354 321.495 11.2764 321.667 11.2334C321.842 11.1904 322.019 11.16 322.198 11.1421C322.377 11.1242 322.549 11.1134 322.714 11.1099C322.882 11.1063 323.029 11.1045 323.154 11.1045H326.425V19ZM325.367 12.0391H322.95C322.857 12.0391 322.762 12.0409 322.666 12.0444C322.569 12.0444 322.472 12.0498 322.375 12.0605C322.279 12.0713 322.186 12.0892 322.096 12.1143C322.007 12.1357 321.924 12.168 321.849 12.2109C321.742 12.2718 321.65 12.347 321.575 12.4365C321.5 12.526 321.437 12.6245 321.387 12.7319C321.341 12.8394 321.307 12.9504 321.285 13.0649C321.264 13.1795 321.253 13.2923 321.253 13.4033C321.253 13.4785 321.258 13.5627 321.269 13.6558C321.28 13.7453 321.303 13.8402 321.339 13.9404C321.375 14.0371 321.425 14.1338 321.489 14.2305C321.554 14.3236 321.64 14.4095 321.747 14.4883C321.84 14.5599 321.933 14.6154 322.026 14.6548C322.123 14.6906 322.225 14.7174 322.333 14.7354C322.44 14.7497 322.555 14.7568 322.676 14.7568C322.802 14.7568 322.939 14.755 323.09 14.7515H325.367V12.0391Z" fill="#181818"/>
    <path d="M331.125 11.1045H337.436V19H336.378V12.0283H332.178V19H331.125V11.1045Z" fill="#181818"/>
    <path d="M342.286 14.7998C342.845 14.7998 343.248 14.6816 343.495 14.4453C343.742 14.209 343.865 13.8652 343.865 13.4141C343.865 12.9629 343.742 12.6191 343.495 12.3828C343.248 12.1465 342.845 12.0283 342.286 12.0283H340.127V14.7998H342.286ZM339.074 11.1045H342.394C342.827 11.1045 343.201 11.16 343.516 11.271C343.835 11.382 344.098 11.5396 344.306 11.7437C344.513 11.9442 344.667 12.1859 344.768 12.4688C344.871 12.7516 344.923 13.0667 344.923 13.4141C344.923 13.7614 344.871 14.0765 344.768 14.3594C344.667 14.6423 344.513 14.8857 344.306 15.0898C344.098 15.2904 343.835 15.4461 343.516 15.5571C343.201 15.6681 342.827 15.7236 342.394 15.7236H340.127V19H339.074V11.1045Z" fill="#181818"/>
    <path d="M353.721 15.0522C353.721 15.3924 353.687 15.7326 353.619 16.0728C353.551 16.4093 353.447 16.7316 353.308 17.0396C353.168 17.3439 352.993 17.6286 352.781 17.8936C352.574 18.1549 352.326 18.3841 352.04 18.5811C351.754 18.7744 351.43 18.9248 351.068 19.0322C350.71 19.1432 350.312 19.1987 349.875 19.1987C349.439 19.1987 349.039 19.1432 348.678 19.0322C348.316 18.9248 347.992 18.7744 347.706 18.5811C347.423 18.3841 347.176 18.1549 346.964 17.8936C346.753 17.6286 346.578 17.3439 346.438 17.0396C346.298 16.7316 346.194 16.4093 346.126 16.0728C346.058 15.7326 346.024 15.3924 346.024 15.0522C346.024 14.4399 346.11 13.8796 346.282 13.3711C346.458 12.8626 346.71 12.4258 347.04 12.0605C347.369 11.6953 347.772 11.4124 348.248 11.2119C348.724 11.0078 349.267 10.9058 349.875 10.9058C350.481 10.9058 351.021 11.0078 351.498 11.2119C351.977 11.4124 352.38 11.6953 352.706 12.0605C353.035 12.4258 353.286 12.8626 353.458 13.3711C353.633 13.8796 353.721 14.4399 353.721 15.0522ZM352.668 15.0522C352.668 14.5832 352.606 14.1517 352.48 13.7578C352.355 13.3604 352.173 13.0202 351.933 12.7373C351.696 12.4508 351.404 12.2288 351.057 12.0713C350.71 11.9102 350.316 11.8296 349.875 11.8296C349.431 11.8296 349.036 11.9102 348.688 12.0713C348.341 12.2288 348.048 12.4508 347.808 12.7373C347.571 13.0202 347.39 13.3604 347.265 13.7578C347.14 14.1517 347.077 14.5832 347.077 15.0522C347.077 15.5321 347.134 15.9707 347.249 16.3682C347.364 16.762 347.537 17.1004 347.77 17.3833C348.003 17.6662 348.293 17.8864 348.64 18.0439C348.991 18.1979 349.403 18.2749 349.875 18.2749C350.345 18.2749 350.755 18.1979 351.105 18.0439C351.456 17.8864 351.746 17.6662 351.976 17.3833C352.208 17.1004 352.382 16.762 352.497 16.3682C352.611 15.9707 352.668 15.5321 352.668 15.0522Z" fill="#181818"/>
    <path d="M354.355 20.6919V18.0762H355.069C355.145 17.9043 355.214 17.7306 355.279 17.5552C355.343 17.3761 355.402 17.1756 355.456 16.9536C355.513 16.728 355.565 16.4702 355.612 16.1802C355.662 15.8901 355.708 15.5464 355.751 15.1489C355.802 14.73 355.841 14.3182 355.87 13.9136C355.898 13.5054 355.92 13.124 355.934 12.7695C355.952 12.415 355.963 12.0946 355.966 11.8081C355.973 11.5216 355.979 11.2871 355.982 11.1045H360.945V18.0762H361.837V20.6919H360.849V19H355.343V20.6919H354.355ZM356.971 12.0283C356.971 12.5404 356.949 13.0506 356.906 13.5591C356.867 14.0675 356.819 14.5796 356.761 15.0952C356.722 15.5034 356.681 15.8507 356.638 16.1372C356.598 16.4201 356.555 16.6725 356.509 16.8945C356.466 17.113 356.416 17.3153 356.358 17.5015C356.305 17.6841 356.242 17.8757 356.17 18.0762H359.86V12.0283H356.971Z" fill="#181818"/>
    <path d="M366.864 15.7451L365.661 12.2324L364.329 15.7451H366.864ZM362.062 19L365.022 10.981H366.306L369.168 19H367.998L367.165 16.583H364.061L363.18 19H362.062Z" fill="#181818"/>
    <path d="M370.151 11.1045H375.915V12.0283H371.204V14.4668H375.549V15.3906H371.204V18.0762H375.99V19H370.151V11.1045Z" fill="#181818"/>
    <path d="M376.828 11.1045H383.251V12.0283H380.566V19H379.508V12.0283H376.828V11.1045Z" fill="#181818"/>
    <path d="M198.616 0V29H197.616V0H198.616Z" fill="#EAEAEA"/>
    <path d="M0 8.876V5.78H13.284V8.876H8.268V23H5.028V8.876H0Z" fill="#EF0D37"/>
    <path d="M13.9954 14.396C13.9954 12.748 14.3834 11.248 15.1594 9.896C15.9354 8.544 17.0034 7.484 18.3634 6.716C19.7234 5.94 21.2314 5.552 22.8874 5.552C24.5434 5.552 26.0514 5.94 27.4114 6.716C28.7794 7.484 29.8514 8.544 30.6274 9.896C31.4114 11.248 31.8034 12.748 31.8034 14.396C31.8034 16.036 31.4114 17.532 30.6274 18.884C29.8514 20.236 28.7794 21.3 27.4114 22.076C26.0514 22.844 24.5434 23.228 22.8874 23.228C21.2314 23.228 19.7234 22.844 18.3634 22.076C17.0034 21.3 15.9354 20.236 15.1594 18.884C14.3834 17.532 13.9954 16.036 13.9954 14.396ZM17.2354 14.396C17.2354 16.004 17.7794 17.356 18.8674 18.452C19.9554 19.54 21.2994 20.084 22.8994 20.084C24.4994 20.084 25.8434 19.54 26.9314 18.452C28.0194 17.356 28.5634 16.004 28.5634 14.396C28.5634 12.78 28.0194 11.428 26.9314 10.34C25.8434 9.244 24.4994 8.696 22.8994 8.696C21.8514 8.696 20.8914 8.944 20.0194 9.44C19.1554 9.936 18.4754 10.624 17.9794 11.504C17.4834 12.376 17.2354 13.34 17.2354 14.396Z" fill="#EF0D37"/>
    <path d="M49.5069 5.78V23H46.2669V8.792H38.2389V23H34.9989V5.78H49.5069Z" fill="#EF0D37"/>
    <path d="M61.2489 23V5.78H68.1489C69.8529 5.78 71.2529 6.304 72.3489 7.352C73.4529 8.392 74.0049 9.72 74.0049 11.336C74.0049 12.952 73.4529 14.28 72.3489 15.32C71.2449 16.36 69.8449 16.88 68.1489 16.88H64.4889V23H61.2489ZM64.4889 13.796H68.1489C68.9089 13.796 69.5329 13.564 70.0209 13.1C70.5169 12.636 70.7649 12.048 70.7649 11.336C70.7649 10.624 70.5169 10.036 70.0209 9.572C69.5329 9.108 68.9089 8.876 68.1489 8.876H64.4889V13.796Z" fill="#EF0D37"/>
    <path d="M87.3958 23H76.2958V5.78H87.3958V8.912H79.5358V12.716H85.9198V15.728H79.5358V19.868H87.3958V23Z" fill="#EF0D37"/>
    <path d="M100.454 6.584C100.806 6.048 101.278 5.78 101.87 5.78H104.894L99.3139 13.412C99.1859 13.596 99.0219 13.764 98.8219 13.916C98.6299 14.06 98.4379 14.14 98.2459 14.156V14.18C98.4459 14.212 98.6499 14.304 98.8579 14.456C99.0659 14.608 99.2259 14.764 99.3379 14.924L105.35 23H102.386C102.074 23 101.774 22.92 101.486 22.76C101.206 22.6 100.978 22.392 100.802 22.136L95.7019 15.02C95.4379 14.636 95.0459 14.352 94.5259 14.168C95.0139 14.008 95.3979 13.724 95.6779 13.316L100.454 6.584ZM93.9499 23H90.7099V5.792H93.9499V23Z" fill="#EF0D37"/>
    <path d="M121.695 5.78V23H118.455V8.768H113.127L112.671 17.228C112.559 19.204 112.087 20.688 111.255 21.68C110.423 22.672 109.395 23.168 108.171 23.168C107.139 23.168 106.203 23 105.363 22.664L105.687 21.056C105.735 20.744 105.843 20.512 106.011 20.36C106.187 20.208 106.447 20.148 106.791 20.18C106.863 20.18 106.995 20.196 107.187 20.228C107.379 20.26 107.519 20.276 107.607 20.276C108.055 20.276 108.455 20.02 108.807 19.508C109.167 18.988 109.375 18.156 109.431 17.012L110.055 5.78H121.695Z" fill="#EF0D37"/>
    <path d="M134.13 5.78L141.654 23H139.338C138.954 23 138.606 22.9 138.294 22.7C137.99 22.492 137.762 22.204 137.61 21.836L136.59 19.472H128.814L127.794 21.836C127.634 22.204 127.398 22.492 127.086 22.7C126.782 22.9 126.438 23 126.054 23H123.738L131.262 5.78H134.13ZM129.99 16.76H135.402L133.242 11.768C132.922 11.032 132.762 10.324 132.762 9.644H132.642C132.634 10.332 132.47 11.04 132.15 11.768L129.99 16.76Z" fill="#EF0D37"/>
    <path d="M159.926 5.78H162.482V23H159.242V11.84C159.242 11.488 159.322 11.04 159.482 10.496H159.446L154.514 20.108C154.21 20.7 153.738 20.996 153.098 20.996C152.45 20.996 151.974 20.7 151.67 20.108L146.738 10.496H146.702C146.862 11 146.942 11.448 146.942 11.84V23H143.702V5.78H146.27C146.734 5.78 147.094 5.864 147.35 6.032C147.614 6.2 147.862 6.504 148.094 6.944L152.798 15.8C152.942 16.112 153.034 16.5 153.074 16.964H153.11C153.158 16.484 153.254 16.096 153.398 15.8L158.09 6.944C158.322 6.504 158.566 6.2 158.822 6.032C159.086 5.864 159.454 5.78 159.926 5.78Z" fill="#EF0D37"/>
    <path d="M174.935 5.78L182.459 23H180.143C179.759 23 179.411 22.9 179.099 22.7C178.795 22.492 178.567 22.204 178.415 21.836L177.395 19.472H169.619L168.599 21.836C168.439 22.204 168.203 22.492 167.891 22.7C167.587 22.9 167.243 23 166.859 23H164.543L172.067 5.78H174.935ZM170.795 16.76H176.207L174.047 11.768C173.727 11.032 173.567 10.324 173.567 9.644H173.447C173.439 10.332 173.275 11.04 172.955 11.768L170.795 16.76Z" fill="#EF0D37"/>
  </symbol>
</svg>
