<svg width="446" height="200" viewBox="0 0 446 200" fill="none" xmlns="http://www.w3.org/2000/svg">
<path d="M277.76 162.428L277.76 162.427C285.605 145.248 289.515 123.559 289.515 97.3824C289.515 69.7759 285.203 47.9805 276.534 32.0384C270.932 21.7202 263.579 13.9623 254.471 8.7873C245.365 3.61324 234.531 1.03695 221.991 1.03695C208.036 1.03695 196.205 4.70987 186.527 12.0795C176.853 19.4458 169.369 30.4762 164.052 45.1277L164.052 45.1286C158.375 60.858 155.543 79.6669 155.543 101.544C155.543 129.782 160.261 152.339 169.739 169.176L169.739 169.176C181.134 189.381 198.528 199.5 221.856 199.5C234.769 199.5 245.905 196.414 255.241 190.221C264.575 184.03 272.077 174.755 277.76 162.428ZM254.362 44.6708L254.363 44.6718C259.717 58.6453 262.405 76.522 262.405 98.322C262.405 113.428 261.475 126.127 259.62 136.424C257.764 146.727 254.988 154.593 251.319 160.061C243.958 171.03 234.104 176.485 221.721 176.485C214.02 176.485 207.473 174.248 202.053 169.786C196.626 165.319 192.294 158.594 189.085 149.568C184.894 137.74 182.788 122.053 182.788 102.483C182.788 76.4692 186.061 56.8726 192.561 43.6407C195.849 36.9933 200.066 32.0358 205.202 28.738C210.336 25.4412 216.419 23.7834 223.471 23.7834C231.156 23.7834 237.546 25.5327 242.672 28.9999C247.798 32.4665 251.7 37.6776 254.362 44.6708ZM84.6164 124.706C84.6164 124.983 84.3925 125.206 84.1164 125.206H25.2763C24.8704 125.206 24.6336 124.748 24.8684 124.417L83.7085 41.4363C83.9904 41.0388 84.6164 41.2383 84.6164 41.7255V124.706ZM85.0202 192.765C85.0202 193.593 85.6917 194.265 86.5202 194.265H108.746C109.574 194.265 110.246 193.593 110.246 192.765V147.782C110.246 147.506 110.47 147.282 110.746 147.282H137.143C137.972 147.282 138.643 146.61 138.643 145.782V126.706C138.643 125.878 137.972 125.206 137.143 125.206H110.746C110.47 125.206 110.246 124.983 110.246 124.706V2C110.246 1.17157 109.574 0.5 108.746 0.5H89.7997C89.3182 0.5 88.866 0.731121 88.584 1.12134L0.784288 122.601C0.599479 122.857 0.5 123.164 0.5 123.479V145.782C0.5 146.61 1.17157 147.282 2 147.282H84.5202C84.7963 147.282 85.0202 147.506 85.0202 147.782V192.765ZM391.473 124.706C391.473 124.983 391.249 125.206 390.973 125.206H332.133C331.727 125.206 331.49 124.748 331.725 124.417L390.565 41.4364C390.847 41.0388 391.473 41.2383 391.473 41.7255V124.706ZM391.877 192.765C391.877 193.593 392.548 194.265 393.377 194.265H415.602C416.431 194.265 417.102 193.593 417.102 192.765V147.782C417.102 147.506 417.326 147.282 417.602 147.282H444C444.828 147.282 445.5 146.61 445.5 145.782V126.706C445.5 125.878 444.828 125.206 444 125.206H417.602C417.326 125.206 417.102 124.983 417.102 124.706V2C417.102 1.17158 416.431 0.5 415.602 0.5H396.656C396.175 0.5 395.723 0.731127 395.441 1.12134L307.641 122.601C307.456 122.857 307.357 123.164 307.357 123.479V145.782C307.357 146.61 308.028 147.282 308.857 147.282H391.377C391.653 147.282 391.877 147.506 391.877 147.782V192.765Z" stroke="#EF0D37"/>
</svg>
