<svg width="42" height="42" viewBox="0 0 42 42" fill="none" xmlns="http://www.w3.org/2000/svg">
<path d="M21 42C32.598 42 42 32.598 42 21C42 9.40202 32.598 0 21 0C9.40202 0 0 9.40202 0 21C0 32.598 9.40202 42 21 42Z" fill="#EBEBEB"/>
<path fill-rule="evenodd" clip-rule="evenodd" d="M21.2118 31.4765H21.2074C19.4018 31.4759 17.6277 31.0229 16.052 30.1634L10.333 31.6636L11.8635 26.0733C10.9194 24.4372 10.4226 22.5813 10.4235 20.6799C10.4258 14.7318 15.2654 9.89246 21.2117 9.89246C24.0977 9.8937 26.8064 11.0172 28.8432 13.0564C30.88 15.0955 32.0011 17.8059 31.9999 20.6884C31.9975 26.6353 27.1599 31.4741 21.2118 31.4765ZM16.3172 28.2102L16.6446 28.4045C18.0213 29.2215 19.5994 29.6537 21.2084 29.6544H21.212C26.1542 29.6544 30.1766 25.6318 30.1786 20.6876C30.1795 18.2917 29.2478 16.0389 27.5548 14.344C25.8619 12.6491 23.6106 11.7153 21.2156 11.7144C16.2696 11.7144 12.2471 15.7365 12.2451 20.6804C12.2444 22.3747 12.7185 24.0247 13.6161 25.4523L13.8293 25.7916L12.9235 29.1004L16.3172 28.2102ZM26.2775 23.0111C26.4655 23.1019 26.5925 23.1633 26.6467 23.2538C26.7141 23.3662 26.7141 23.9059 26.4895 24.5356C26.2648 25.1653 25.1879 25.74 24.67 25.8173C24.2056 25.8868 23.6179 25.9157 22.9722 25.7105C22.5807 25.5863 22.0786 25.4204 21.4355 25.1427C18.9084 24.0515 17.2006 21.6022 16.8779 21.1393C16.8553 21.1069 16.8394 21.0842 16.8306 21.0724L16.8284 21.0695C16.6858 20.8792 15.7299 19.6039 15.7299 18.2839C15.7299 17.0423 16.3399 16.3915 16.6206 16.0919C16.6398 16.0714 16.6575 16.0525 16.6734 16.0352C16.9205 15.7653 17.2125 15.6978 17.3922 15.6978C17.5719 15.6978 17.7518 15.6995 17.9088 15.7074C17.9282 15.7084 17.9484 15.7082 17.9692 15.7081C18.1263 15.7072 18.3221 15.7061 18.5153 16.1701C18.5896 16.3487 18.6984 16.6134 18.8131 16.8927C19.045 17.4574 19.3013 18.0813 19.3464 18.1716C19.4138 18.3066 19.4587 18.4639 19.3689 18.6439C19.3554 18.6709 19.3429 18.6964 19.331 18.7207C19.2635 18.8585 19.2139 18.9598 19.0993 19.0936C19.0543 19.1461 19.0078 19.2028 18.9612 19.2595C18.8685 19.3725 18.7757 19.4854 18.695 19.5658C18.5601 19.7002 18.4196 19.8461 18.5768 20.1159C18.7341 20.3858 19.275 21.2685 20.0764 21.9833C20.9378 22.7516 21.6865 23.0764 22.066 23.241C22.1401 23.2731 22.2001 23.2992 22.2442 23.3212C22.5136 23.4562 22.6709 23.4336 22.8281 23.2538C22.9854 23.0739 23.502 22.4666 23.6816 22.1968C23.8613 21.927 24.0411 21.972 24.2881 22.0619C24.5353 22.1519 25.8605 22.804 26.1301 22.9389C26.1827 22.9652 26.2319 22.989 26.2775 23.0111Z" fill="#25D366"/>
</svg>
