<svg width="11" height="7" viewBox="0 0 11 7" fill="none" xmlns="http://www.w3.org/2000/svg">
<path d="M5.94973 5.94975C5.55921 6.34027 4.92604 6.34027 4.53552 5.94975C4.14499 5.55922 4.14499 4.92606 4.53552 4.53553L8.77816 0.292893C9.16868 -0.0976312 9.80185 -0.097631 10.1924 0.292893C10.5829 0.683418 10.5829 1.31658 10.1924 1.70711L5.94973 5.94975Z" fill="white"/>
<path d="M5.94975 4.53555C6.34027 4.92607 6.34026 5.55922 5.94973 5.94975C5.55921 6.34027 4.92604 6.34027 4.53552 5.94975L0.292893 1.70713C-0.0976311 1.3166 -0.0976311 0.683436 0.292893 0.292911C0.683418 -0.0976134 1.31658 -0.0976135 1.70711 0.292911L5.94975 4.53555Z" fill="white"/>
</svg>
