<svg width="44" height="44" viewBox="0 0 44 44" fill="none" xmlns="http://www.w3.org/2000/svg">
<circle cx="22" cy="22" r="22" fill="#EF0D37"/>
<path d="M31 19.25C31 19.6642 30.6642 20 30.25 20L13.75 20C13.3358 20 13 19.6642 13 19.25C13 18.8358 13.3358 18.5 13.75 18.5L30.25 18.5C30.6642 18.5 31 18.8358 31 19.25Z" fill="white"/>
<path d="M13 24.75C13 24.3358 13.3358 24 13.75 24H30.25C30.6642 24 31 24.3358 31 24.75C31 25.1642 30.6642 25.5 30.25 25.5H13.75C13.3358 25.5 13 25.1642 13 24.75Z" fill="white"/>
</svg>
