<svg width="22" height="23" viewBox="0 0 22 23" fill="none" xmlns="http://www.w3.org/2000/svg">
<path fill-rule="evenodd" clip-rule="evenodd" d="M11.2118 22.4765H11.2074C9.40182 22.4759 7.6277 22.0229 6.05197 21.1634L0.333008 22.6636L1.8635 17.0733C0.919417 15.4372 0.422647 13.5813 0.423456 11.6799C0.425823 5.73176 5.26539 0.892456 11.2117 0.892456C14.0977 0.893702 16.8064 2.0172 18.8432 4.05638C20.88 6.09547 22.0011 8.80591 21.9999 11.6884C21.9975 17.6353 17.1599 22.4741 11.2118 22.4765ZM6.31716 19.2102L6.64459 19.4045C8.02129 20.2215 9.59941 20.6537 11.2084 20.6544H11.212C16.1542 20.6544 20.1766 16.6318 20.1786 11.6876C20.1795 9.29171 19.2478 7.03891 17.5548 5.34401C15.8619 3.64912 13.6106 2.71526 11.2156 2.71443C6.26958 2.71443 2.2471 6.73655 2.24514 11.6804C2.24444 13.3747 2.7185 15.0247 3.61608 16.4523L3.82928 16.7916L2.92345 20.1004L6.31716 19.2102ZM16.2775 14.0111C16.4655 14.1019 16.5925 14.1633 16.6467 14.2538C16.7141 14.3662 16.7141 14.9059 16.4895 15.5356C16.2648 16.1653 15.1879 16.74 14.67 16.8173C14.2056 16.8868 13.6179 16.9157 12.9722 16.7105C12.5807 16.5863 12.0786 16.4204 11.4355 16.1427C8.90841 15.0515 7.20063 12.6022 6.87786 12.1393C6.85525 12.1069 6.83944 12.0842 6.83062 12.0724L6.82844 12.0695C6.68579 11.8792 5.72994 10.6039 5.72994 9.28394C5.72994 8.04228 6.33986 7.39146 6.62061 7.09189C6.63984 7.07136 6.65753 7.05249 6.67338 7.03518C6.92045 6.76531 7.2125 6.69785 7.3922 6.69785C7.57188 6.69785 7.75178 6.69951 7.90883 6.7074C7.92821 6.70837 7.94837 6.70825 7.96921 6.70813C8.12629 6.70721 8.32213 6.70606 8.51533 7.17012C8.58965 7.3487 8.69839 7.61344 8.81308 7.89266C9.04504 8.45738 9.30134 9.08134 9.34643 9.17163C9.41383 9.30657 9.45875 9.46392 9.3689 9.6439C9.35541 9.67089 9.34294 9.69635 9.33102 9.72068C9.26353 9.85846 9.21389 9.95981 9.09935 10.0936C9.05431 10.1461 9.00776 10.2028 8.96121 10.2595C8.86847 10.3725 8.77575 10.4854 8.695 10.5658C8.56005 10.7002 8.41958 10.8461 8.57682 11.1159C8.73406 11.3858 9.27505 12.2685 10.0764 12.9833C10.9378 13.7516 11.6865 14.0764 12.066 14.241C12.1401 14.2731 12.2001 14.2992 12.2442 14.3212C12.5136 14.4562 12.6709 14.4336 12.8281 14.2538C12.9854 14.0739 13.502 13.4666 13.6816 13.1968C13.8613 12.927 14.0411 12.972 14.2881 13.0619C14.5353 13.1519 15.8605 13.804 16.1301 13.9389C16.1827 13.9652 16.2319 13.989 16.2775 14.0111Z" fill="#25D366"/>
</svg>
