<svg width="42" height="42" viewBox="0 0 42 42" fill="none" xmlns="http://www.w3.org/2000/svg">
<path d="M21 42C32.598 42 42 32.598 42 21C42 9.40202 32.598 0 21 0C9.40202 0 0 9.40202 0 21C0 32.598 9.40202 42 21 42Z" fill="#EBEBEB"/>
<path d="M10.3021 20.4425C12.3481 19.3538 14.6321 18.4452 16.7661 17.532C20.4374 16.0361 24.1233 14.5662 27.8464 13.1978C28.5708 12.9646 29.8724 12.7366 30 13.7735C29.9301 15.2413 29.6426 16.7005 29.4454 18.1597C28.945 21.3686 28.3665 24.5665 27.8024 27.7649C27.608 28.8302 26.2264 29.3817 25.3424 28.6999C23.2178 27.3138 21.077 25.941 18.9796 24.5227C18.2925 23.8483 18.9296 22.8799 19.5432 22.3984C21.2931 20.7326 23.1488 19.3174 24.8072 17.5656C25.2545 16.5221 23.9327 17.4015 23.4968 17.671C21.1012 19.2656 18.7643 20.9575 16.2387 22.3589C14.9486 23.0449 13.445 22.4587 12.1555 22.0759C10.9993 21.6135 9.30503 21.1476 10.302 20.4426L10.3021 20.4425Z" fill="#2BA3D6"/>
</svg>
