<svg width="384" height="29" viewBox="0 0 384 29" fill="none" xmlns="http://www.w3.org/2000/svg">
<path d="M218.028 14.7998C218.587 14.7998 218.99 14.6816 219.237 14.4453C219.484 14.209 219.607 13.8652 219.607 13.4141C219.607 12.9629 219.484 12.6191 219.237 12.3828C218.99 12.1465 218.587 12.0283 218.028 12.0283H215.869V14.7998H218.028ZM214.816 11.1045H218.136C218.569 11.1045 218.943 11.16 219.258 11.271C219.577 11.382 219.84 11.5396 220.048 11.7437C220.256 11.9442 220.41 12.1859 220.51 12.4688C220.614 12.7516 220.666 13.0667 220.666 13.4141C220.666 13.7614 220.614 14.0765 220.51 14.3594C220.41 14.6423 220.256 14.8857 220.048 15.0898C219.84 15.2904 219.577 15.4461 219.258 15.5571C218.943 15.6681 218.569 15.7236 218.136 15.7236H215.869V19H214.816V11.1045Z" fill="#181818"/>
<path d="M222.153 11.1045H227.917V12.0283H223.206V14.4668H227.551V15.3906H223.206V18.0762H227.992V19H222.153V11.1045Z" fill="#181818"/>
<path d="M229.49 11.1045H230.543V14.9502L234.394 11.1045H235.866L232.579 14.2896L235.957 19H234.604L231.821 15.02L230.543 16.25V19H229.49V11.1045Z" fill="#181818"/>
<path d="M241.688 12.0283H238.868C238.868 12.6406 238.861 13.2422 238.847 13.833C238.832 14.4238 238.802 14.9842 238.755 15.5142C238.709 16.0405 238.639 16.5257 238.546 16.9697C238.453 17.4137 238.326 17.7987 238.165 18.1245C238.003 18.4468 237.803 18.6992 237.563 18.8818C237.327 19.0609 237.038 19.1504 236.698 19.1504C236.594 19.1504 236.507 19.1414 236.435 19.1235C236.367 19.1056 236.292 19.0859 236.209 19.0645V18.0869C236.249 18.1048 236.297 18.1209 236.354 18.1353C236.415 18.146 236.501 18.1514 236.612 18.1514C236.777 18.1514 236.918 18.0923 237.037 17.9741C237.158 17.8524 237.262 17.6841 237.348 17.4692C237.434 17.2544 237.504 17.0002 237.558 16.7065C237.615 16.4093 237.66 16.0871 237.692 15.7397C237.728 15.3924 237.753 15.0254 237.767 14.6387C237.785 14.252 237.798 13.8599 237.805 13.4624C237.815 13.0614 237.821 12.6621 237.821 12.2646C237.824 11.8636 237.83 11.4769 237.837 11.1045H242.746V19H241.688V12.0283Z" fill="#181818"/>
<path d="M248.558 15.7451L247.354 12.2324L246.022 15.7451H248.558ZM243.756 19L246.715 10.981H247.999L250.862 19H249.691L248.858 16.583H245.754L244.873 19H243.756Z" fill="#181818"/>
<path d="M251.845 11.1045H253.359L255.594 17.7485H255.615L257.85 11.1045H259.364V19H258.376V12.356H258.354L256.131 19H255.078L252.854 12.356H252.833V19H251.845V11.1045Z" fill="#181818"/>
<path d="M265.187 15.7451L263.983 12.2324L262.651 15.7451H265.187ZM260.385 19L263.344 10.981H264.628L267.491 19H266.32L265.487 16.583H262.383L261.502 19H260.385Z" fill="#181818"/>
<path d="M268.57 20.1226C268.817 20.0796 268.991 19.9059 269.091 19.6016C269.145 19.4404 269.172 19.2847 269.172 19.1343C269.172 19.1092 269.17 19.0859 269.167 19.0645C269.167 19.0465 269.163 19.0251 269.156 19H268.57V17.8291H269.72V18.9141C269.72 19.3402 269.634 19.7144 269.462 20.0366C269.29 20.3589 268.993 20.5576 268.57 20.6328V20.1226Z" fill="#181818"/>
<path d="M274.597 11.1045H275.649V14.9502L279.5 11.1045H280.972L277.685 14.2896L281.063 19H279.71L276.928 15.02L275.649 16.25V19H274.597V11.1045Z" fill="#181818"/>
<path d="M289.244 15.0522C289.244 15.3924 289.21 15.7326 289.142 16.0728C289.074 16.4093 288.97 16.7316 288.83 17.0396C288.69 17.3439 288.515 17.6286 288.304 17.8936C288.096 18.1549 287.849 18.3841 287.562 18.5811C287.276 18.7744 286.952 18.9248 286.59 19.0322C286.232 19.1432 285.835 19.1987 285.398 19.1987C284.961 19.1987 284.562 19.1432 284.2 19.0322C283.839 18.9248 283.514 18.7744 283.228 18.5811C282.945 18.3841 282.698 18.1549 282.487 17.8936C282.276 17.6286 282.1 17.3439 281.96 17.0396C281.821 16.7316 281.717 16.4093 281.649 16.0728C281.581 15.7326 281.547 15.3924 281.547 15.0522C281.547 14.4399 281.633 13.8796 281.805 13.3711C281.98 12.8626 282.233 12.4258 282.562 12.0605C282.891 11.6953 283.294 11.4124 283.771 11.2119C284.247 11.0078 284.789 10.9058 285.398 10.9058C286.003 10.9058 286.544 11.0078 287.02 11.2119C287.5 11.4124 287.903 11.6953 288.229 12.0605C288.558 12.4258 288.809 12.8626 288.98 13.3711C289.156 13.8796 289.244 14.4399 289.244 15.0522ZM288.191 15.0522C288.191 14.5832 288.128 14.1517 288.003 13.7578C287.878 13.3604 287.695 13.0202 287.455 12.7373C287.219 12.4508 286.927 12.2288 286.58 12.0713C286.232 11.9102 285.838 11.8296 285.398 11.8296C284.954 11.8296 284.558 11.9102 284.211 12.0713C283.864 12.2288 283.57 12.4508 283.33 12.7373C283.094 13.0202 282.913 13.3604 282.788 13.7578C282.662 14.1517 282.6 14.5832 282.6 15.0522C282.6 15.5321 282.657 15.9707 282.771 16.3682C282.886 16.762 283.06 17.1004 283.292 17.3833C283.525 17.6662 283.815 17.8864 284.163 18.0439C284.514 18.1979 284.925 18.2749 285.398 18.2749C285.867 18.2749 286.277 18.1979 286.628 18.0439C286.979 17.8864 287.269 17.6662 287.498 17.3833C287.731 17.1004 287.904 16.762 288.019 16.3682C288.134 15.9707 288.191 15.5321 288.191 15.0522Z" fill="#181818"/>
<path d="M289.834 11.1045H296.258V12.0283H293.573V19H292.515V12.0283H289.834V11.1045Z" fill="#181818"/>
<path d="M304.53 15.0522C304.53 15.3924 304.496 15.7326 304.428 16.0728C304.36 16.4093 304.256 16.7316 304.116 17.0396C303.977 17.3439 303.801 17.6286 303.59 17.8936C303.382 18.1549 303.135 18.3841 302.849 18.5811C302.562 18.7744 302.238 18.9248 301.876 19.0322C301.518 19.1432 301.121 19.1987 300.684 19.1987C300.247 19.1987 299.848 19.1432 299.486 19.0322C299.125 18.9248 298.801 18.7744 298.514 18.5811C298.231 18.3841 297.984 18.1549 297.773 17.8936C297.562 17.6286 297.386 17.3439 297.247 17.0396C297.107 16.7316 297.003 16.4093 296.935 16.0728C296.867 15.7326 296.833 15.3924 296.833 15.0522C296.833 14.4399 296.919 13.8796 297.091 13.3711C297.266 12.8626 297.519 12.4258 297.848 12.0605C298.178 11.6953 298.58 11.4124 299.057 11.2119C299.533 11.0078 300.075 10.9058 300.684 10.9058C301.289 10.9058 301.83 11.0078 302.306 11.2119C302.786 11.4124 303.189 11.6953 303.515 12.0605C303.844 12.4258 304.095 12.8626 304.267 13.3711C304.442 13.8796 304.53 14.4399 304.53 15.0522ZM303.477 15.0522C303.477 14.5832 303.414 14.1517 303.289 13.7578C303.164 13.3604 302.981 13.0202 302.741 12.7373C302.505 12.4508 302.213 12.2288 301.866 12.0713C301.518 11.9102 301.125 11.8296 300.684 11.8296C300.24 11.8296 299.844 11.9102 299.497 12.0713C299.15 12.2288 298.856 12.4508 298.616 12.7373C298.38 13.0202 298.199 13.3604 298.074 13.7578C297.948 14.1517 297.886 14.5832 297.886 15.0522C297.886 15.5321 297.943 15.9707 298.058 16.3682C298.172 16.762 298.346 17.1004 298.579 17.3833C298.811 17.6662 299.101 17.8864 299.449 18.0439C299.8 18.1979 300.211 18.2749 300.684 18.2749C301.153 18.2749 301.563 18.1979 301.914 18.0439C302.265 17.8864 302.555 17.6662 302.784 17.3833C303.017 17.1004 303.191 16.762 303.305 16.3682C303.42 15.9707 303.477 15.5321 303.477 15.0522Z" fill="#181818"/>
<path d="M308.993 14.7998C309.552 14.7998 309.955 14.6816 310.202 14.4453C310.449 14.209 310.572 13.8652 310.572 13.4141C310.572 12.9629 310.449 12.6191 310.202 12.3828C309.955 12.1465 309.552 12.0283 308.993 12.0283H306.834V14.7998H308.993ZM305.781 11.1045H309.101C309.534 11.1045 309.908 11.16 310.223 11.271C310.542 11.382 310.805 11.5396 311.013 11.7437C311.22 11.9442 311.374 12.1859 311.475 12.4688C311.578 12.7516 311.63 13.0667 311.63 13.4141C311.63 13.7614 311.578 14.0765 311.475 14.3594C311.374 14.6423 311.22 14.8857 311.013 15.0898C310.805 15.2904 310.542 15.4461 310.223 15.5571C309.908 15.6681 309.534 15.7236 309.101 15.7236H306.834V19H305.781V11.1045Z" fill="#181818"/>
<path d="M317.297 15.7451L316.094 12.2324L314.762 15.7451H317.297ZM312.495 19L315.455 10.981H316.738L319.601 19H318.43L317.598 16.583H314.493L313.612 19H312.495Z" fill="#181818"/>
<path d="M326.809 19H325.751V15.6431H323.785C323.567 15.6431 323.382 15.6466 323.232 15.6538C323.085 15.6574 322.958 15.6681 322.851 15.686C322.747 15.7004 322.657 15.7218 322.582 15.7505C322.51 15.7756 322.441 15.8096 322.373 15.8525C322.29 15.9062 322.219 15.9671 322.158 16.0352C322.097 16.0996 322.043 16.182 321.997 16.2822C321.954 16.3825 321.918 16.506 321.889 16.6528C321.861 16.7996 321.839 16.9805 321.825 17.1953L321.771 18.0547C321.764 18.1585 321.755 18.2534 321.744 18.3394C321.733 18.4217 321.719 18.4987 321.701 18.5703C321.683 18.6419 321.662 18.7135 321.637 18.7852C321.615 18.8532 321.587 18.9248 321.551 19H320.337C320.38 18.9535 320.421 18.9015 320.46 18.8442C320.5 18.7869 320.536 18.7189 320.568 18.6401C320.6 18.5578 320.629 18.4611 320.654 18.3501C320.679 18.2391 320.699 18.1066 320.713 17.9526L320.804 16.8784C320.819 16.6994 320.84 16.5275 320.869 16.3628C320.897 16.1981 320.949 16.0441 321.024 15.9009C321.1 15.7576 321.209 15.6287 321.352 15.5142C321.499 15.3996 321.698 15.3047 321.948 15.2295C321.834 15.1865 321.699 15.1292 321.545 15.0576C321.391 14.986 321.243 14.8804 321.1 14.7407C320.96 14.6011 320.84 14.4185 320.74 14.1929C320.643 13.9637 320.595 13.6737 320.595 13.3228C320.595 13.0721 320.623 12.8447 320.681 12.6406C320.738 12.4365 320.813 12.2557 320.906 12.0981C320.999 11.937 321.105 11.8009 321.223 11.6899C321.345 11.5754 321.468 11.4823 321.594 11.4106C321.726 11.3354 321.878 11.2764 322.05 11.2334C322.226 11.1904 322.403 11.16 322.582 11.1421C322.761 11.1242 322.933 11.1134 323.098 11.1099C323.266 11.1063 323.413 11.1045 323.538 11.1045H326.809V19ZM325.751 12.0391H323.334C323.241 12.0391 323.146 12.0409 323.049 12.0444C322.953 12.0444 322.856 12.0498 322.759 12.0605C322.663 12.0713 322.569 12.0892 322.48 12.1143C322.39 12.1357 322.308 12.168 322.233 12.2109C322.125 12.2718 322.034 12.347 321.959 12.4365C321.884 12.526 321.821 12.6245 321.771 12.7319C321.724 12.8394 321.69 12.9504 321.669 13.0649C321.647 13.1795 321.637 13.2923 321.637 13.4033C321.637 13.4785 321.642 13.5627 321.653 13.6558C321.664 13.7453 321.687 13.8402 321.723 13.9404C321.758 14.0371 321.809 14.1338 321.873 14.2305C321.938 14.3236 322.023 14.4095 322.131 14.4883C322.224 14.5599 322.317 14.6154 322.41 14.6548C322.507 14.6906 322.609 14.7174 322.716 14.7354C322.824 14.7497 322.938 14.7568 323.06 14.7568C323.185 14.7568 323.323 14.755 323.474 14.7515H325.751V12.0391Z" fill="#181818"/>
<path d="M331.509 11.1045H337.82V19H336.762V12.0283H332.562V19H331.509V11.1045Z" fill="#181818"/>
<path d="M342.67 14.7998C343.229 14.7998 343.631 14.6816 343.878 14.4453C344.125 14.209 344.249 13.8652 344.249 13.4141C344.249 12.9629 344.125 12.6191 343.878 12.3828C343.631 12.1465 343.229 12.0283 342.67 12.0283H340.511V14.7998H342.67ZM339.458 11.1045H342.777C343.211 11.1045 343.585 11.16 343.9 11.271C344.219 11.382 344.482 11.5396 344.689 11.7437C344.897 11.9442 345.051 12.1859 345.151 12.4688C345.255 12.7516 345.307 13.0667 345.307 13.4141C345.307 13.7614 345.255 14.0765 345.151 14.3594C345.051 14.6423 344.897 14.8857 344.689 15.0898C344.482 15.2904 344.219 15.4461 343.9 15.5571C343.585 15.6681 343.211 15.7236 342.777 15.7236H340.511V19H339.458V11.1045Z" fill="#181818"/>
<path d="M354.105 15.0522C354.105 15.3924 354.071 15.7326 354.003 16.0728C353.935 16.4093 353.831 16.7316 353.691 17.0396C353.552 17.3439 353.376 17.6286 353.165 17.8936C352.957 18.1549 352.71 18.3841 352.424 18.5811C352.137 18.7744 351.813 18.9248 351.452 19.0322C351.094 19.1432 350.696 19.1987 350.259 19.1987C349.822 19.1987 349.423 19.1432 349.062 19.0322C348.7 18.9248 348.376 18.7744 348.089 18.5811C347.806 18.3841 347.559 18.1549 347.348 17.8936C347.137 17.6286 346.961 17.3439 346.822 17.0396C346.682 16.7316 346.578 16.4093 346.51 16.0728C346.442 15.7326 346.408 15.3924 346.408 15.0522C346.408 14.4399 346.494 13.8796 346.666 13.3711C346.841 12.8626 347.094 12.4258 347.423 12.0605C347.753 11.6953 348.156 11.4124 348.632 11.2119C349.108 11.0078 349.651 10.9058 350.259 10.9058C350.864 10.9058 351.405 11.0078 351.881 11.2119C352.361 11.4124 352.764 11.6953 353.09 12.0605C353.419 12.4258 353.67 12.8626 353.842 13.3711C354.017 13.8796 354.105 14.4399 354.105 15.0522ZM353.052 15.0522C353.052 14.5832 352.99 14.1517 352.864 13.7578C352.739 13.3604 352.556 13.0202 352.316 12.7373C352.08 12.4508 351.788 12.2288 351.441 12.0713C351.094 11.9102 350.7 11.8296 350.259 11.8296C349.815 11.8296 349.42 11.9102 349.072 12.0713C348.725 12.2288 348.431 12.4508 348.191 12.7373C347.955 13.0202 347.774 13.3604 347.649 13.7578C347.524 14.1517 347.461 14.5832 347.461 15.0522C347.461 15.5321 347.518 15.9707 347.633 16.3682C347.747 16.762 347.921 17.1004 348.154 17.3833C348.387 17.6662 348.677 17.8864 349.024 18.0439C349.375 18.1979 349.787 18.2749 350.259 18.2749C350.728 18.2749 351.138 18.1979 351.489 18.0439C351.84 17.8864 352.13 17.6662 352.359 17.3833C352.592 17.1004 352.766 16.762 352.88 16.3682C352.995 15.9707 353.052 15.5321 353.052 15.0522Z" fill="#181818"/>
<path d="M354.739 20.6919V18.0762H355.453C355.528 17.9043 355.598 17.7306 355.663 17.5552C355.727 17.3761 355.786 17.1756 355.84 16.9536C355.897 16.728 355.949 16.4702 355.996 16.1802C356.046 15.8901 356.092 15.5464 356.135 15.1489C356.185 14.73 356.225 14.3182 356.253 13.9136C356.282 13.5054 356.304 13.124 356.318 12.7695C356.336 12.415 356.347 12.0946 356.35 11.8081C356.357 11.5216 356.363 11.2871 356.366 11.1045H361.329V18.0762H362.221V20.6919H361.232V19H355.727V20.6919H354.739ZM357.354 12.0283C357.354 12.5404 357.333 13.0506 357.29 13.5591C357.251 14.0675 357.202 14.5796 357.145 15.0952C357.106 15.5034 357.064 15.8507 357.021 16.1372C356.982 16.4201 356.939 16.6725 356.893 16.8945C356.85 17.113 356.799 17.3153 356.742 17.5015C356.688 17.6841 356.626 17.8757 356.554 18.0762H360.244V12.0283H357.354Z" fill="#181818"/>
<path d="M367.248 15.7451L366.045 12.2324L364.713 15.7451H367.248ZM362.446 19L365.406 10.981H366.689L369.552 19H368.381L367.549 16.583H364.444L363.563 19H362.446Z" fill="#181818"/>
<path d="M370.535 11.1045H376.298V12.0283H371.588V14.4668H375.933V15.3906H371.588V18.0762H376.374V19H370.535V11.1045Z" fill="#181818"/>
<path d="M377.211 11.1045H383.635V12.0283H380.95V19H379.892V12.0283H377.211V11.1045Z" fill="#181818"/>
<path d="M199 0V29H198V0H199Z" fill="#EAEAEA"/>
<path d="M0.383789 8.876V5.78H13.6678V8.876H8.65179V23H5.41179V8.876H0.383789Z" fill="#EF0D37"/>
<path d="M14.3792 14.396C14.3792 12.748 14.7672 11.248 15.5432 9.896C16.3192 8.544 17.3872 7.484 18.7472 6.716C20.1072 5.94 21.6152 5.552 23.2712 5.552C24.9272 5.552 26.4352 5.94 27.7952 6.716C29.1632 7.484 30.2352 8.544 31.0112 9.896C31.7952 11.248 32.1872 12.748 32.1872 14.396C32.1872 16.036 31.7952 17.532 31.0112 18.884C30.2352 20.236 29.1632 21.3 27.7952 22.076C26.4352 22.844 24.9272 23.228 23.2712 23.228C21.6152 23.228 20.1072 22.844 18.7472 22.076C17.3872 21.3 16.3192 20.236 15.5432 18.884C14.7672 17.532 14.3792 16.036 14.3792 14.396ZM17.6192 14.396C17.6192 16.004 18.1632 17.356 19.2512 18.452C20.3392 19.54 21.6832 20.084 23.2832 20.084C24.8832 20.084 26.2272 19.54 27.3152 18.452C28.4032 17.356 28.9472 16.004 28.9472 14.396C28.9472 12.78 28.4032 11.428 27.3152 10.34C26.2272 9.244 24.8832 8.696 23.2832 8.696C22.2352 8.696 21.2752 8.944 20.4032 9.44C19.5392 9.936 18.8592 10.624 18.3632 11.504C17.8672 12.376 17.6192 13.34 17.6192 14.396Z" fill="#EF0D37"/>
<path d="M49.8907 5.78V23H46.6507V8.792H38.6227V23H35.3827V5.78H49.8907Z" fill="#EF0D37"/>
<path d="M61.6327 23V5.78H68.5327C70.2367 5.78 71.6367 6.304 72.7327 7.352C73.8367 8.392 74.3887 9.72 74.3887 11.336C74.3887 12.952 73.8367 14.28 72.7327 15.32C71.6287 16.36 70.2287 16.88 68.5327 16.88H64.8727V23H61.6327ZM64.8727 13.796H68.5327C69.2927 13.796 69.9167 13.564 70.4047 13.1C70.9007 12.636 71.1487 12.048 71.1487 11.336C71.1487 10.624 70.9007 10.036 70.4047 9.572C69.9167 9.108 69.2927 8.876 68.5327 8.876H64.8727V13.796Z" fill="#EF0D37"/>
<path d="M87.7796 23H76.6796V5.78H87.7796V8.912H79.9196V12.716H86.3036V15.728H79.9196V19.868H87.7796V23Z" fill="#EF0D37"/>
<path d="M100.838 6.584C101.19 6.048 101.662 5.78 102.254 5.78H105.278L99.6977 13.412C99.5697 13.596 99.4057 13.764 99.2057 13.916C99.0137 14.06 98.8217 14.14 98.6297 14.156V14.18C98.8297 14.212 99.0337 14.304 99.2417 14.456C99.4497 14.608 99.6097 14.764 99.7217 14.924L105.734 23H102.77C102.458 23 102.158 22.92 101.87 22.76C101.59 22.6 101.362 22.392 101.186 22.136L96.0857 15.02C95.8217 14.636 95.4297 14.352 94.9097 14.168C95.3977 14.008 95.7817 13.724 96.0617 13.316L100.838 6.584ZM94.3337 23H91.0937V5.792H94.3337V23Z" fill="#EF0D37"/>
<path d="M122.079 5.78V23H118.839V8.768H113.511L113.055 17.228C112.943 19.204 112.471 20.688 111.639 21.68C110.807 22.672 109.779 23.168 108.555 23.168C107.523 23.168 106.587 23 105.747 22.664L106.071 21.056C106.119 20.744 106.227 20.512 106.395 20.36C106.571 20.208 106.831 20.148 107.175 20.18C107.247 20.18 107.379 20.196 107.571 20.228C107.763 20.26 107.903 20.276 107.991 20.276C108.439 20.276 108.839 20.02 109.191 19.508C109.551 18.988 109.759 18.156 109.815 17.012L110.439 5.78H122.079Z" fill="#EF0D37"/>
<path d="M134.514 5.78L142.038 23H139.722C139.338 23 138.99 22.9 138.678 22.7C138.374 22.492 138.146 22.204 137.994 21.836L136.974 19.472H129.198L128.178 21.836C128.018 22.204 127.782 22.492 127.47 22.7C127.166 22.9 126.822 23 126.438 23H124.122L131.646 5.78H134.514ZM130.374 16.76H135.786L133.626 11.768C133.306 11.032 133.146 10.324 133.146 9.644H133.026C133.018 10.332 132.854 11.04 132.534 11.768L130.374 16.76Z" fill="#EF0D37"/>
<path d="M160.31 5.78H162.866V23H159.626V11.84C159.626 11.488 159.706 11.04 159.866 10.496H159.83L154.898 20.108C154.594 20.7 154.122 20.996 153.482 20.996C152.834 20.996 152.358 20.7 152.054 20.108L147.122 10.496H147.086C147.246 11 147.326 11.448 147.326 11.84V23H144.086V5.78H146.654C147.118 5.78 147.478 5.864 147.734 6.032C147.998 6.2 148.246 6.504 148.478 6.944L153.182 15.8C153.326 16.112 153.418 16.5 153.458 16.964H153.494C153.542 16.484 153.638 16.096 153.782 15.8L158.474 6.944C158.706 6.504 158.95 6.2 159.206 6.032C159.47 5.864 159.838 5.78 160.31 5.78Z" fill="#EF0D37"/>
<path d="M175.319 5.78L182.843 23H180.527C180.143 23 179.795 22.9 179.483 22.7C179.179 22.492 178.951 22.204 178.799 21.836L177.779 19.472H170.003L168.983 21.836C168.823 22.204 168.587 22.492 168.275 22.7C167.971 22.9 167.627 23 167.243 23H164.927L172.451 5.78H175.319ZM171.179 16.76H176.591L174.431 11.768C174.111 11.032 173.951 10.324 173.951 9.644H173.831C173.823 10.332 173.659 11.04 173.339 11.768L171.179 16.76Z" fill="#EF0D37"/>
</svg>
