<svg width="170" height="11" viewBox="0 0 170 11" fill="none" xmlns="http://www.w3.org/2000/svg">
<path d="M4.02832 4.7998C4.58691 4.7998 4.98975 4.68164 5.23682 4.44531C5.48389 4.20898 5.60742 3.86523 5.60742 3.41406C5.60742 2.96289 5.48389 2.61914 5.23682 2.38281C4.98975 2.14648 4.58691 2.02832 4.02832 2.02832H1.86914V4.7998H4.02832ZM0.816406 1.10449H4.13574C4.56901 1.10449 4.9432 1.15999 5.2583 1.271C5.57699 1.382 5.84017 1.53955 6.04785 1.74365C6.25553 1.94417 6.40951 2.18587 6.50977 2.46875C6.61361 2.75163 6.66553 3.06673 6.66553 3.41406C6.66553 3.76139 6.61361 4.0765 6.50977 4.35938C6.40951 4.64225 6.25553 4.88574 6.04785 5.08984C5.84017 5.29036 5.57699 5.44613 5.2583 5.55713C4.9432 5.66813 4.56901 5.72363 4.13574 5.72363H1.86914V9H0.816406V1.10449Z" fill="#181818"/>
<path d="M8.15332 1.10449H13.9165V2.02832H9.20605V4.4668H13.5513V5.39062H9.20605V8.07617H13.9917V9H8.15332V1.10449Z" fill="#181818"/>
<path d="M15.4902 1.10449H16.543V4.9502L20.394 1.10449H21.8657L18.5786 4.28955L21.957 9H20.6035L17.8213 5.02002L16.543 6.25V9H15.4902V1.10449Z" fill="#181818"/>
<path d="M27.688 2.02832H24.8682C24.8682 2.64062 24.861 3.24219 24.8467 3.83301C24.8324 4.42383 24.8019 4.98421 24.7554 5.51416C24.7088 6.04053 24.639 6.52572 24.5459 6.96973C24.4528 7.41374 24.3257 7.79867 24.1646 8.12451C24.0034 8.44678 23.8029 8.69922 23.563 8.88184C23.3267 9.06087 23.0384 9.15039 22.6982 9.15039C22.5944 9.15039 22.5067 9.14144 22.4351 9.12354C22.367 9.10563 22.2918 9.08594 22.2095 9.06445V8.08691C22.2489 8.10482 22.2972 8.12093 22.3545 8.13525C22.4154 8.146 22.5013 8.15137 22.6123 8.15137C22.777 8.15137 22.9185 8.09229 23.0366 7.97412C23.1584 7.85238 23.2622 7.68408 23.3481 7.46924C23.4341 7.25439 23.5039 7.00016 23.5576 6.70654C23.6149 6.40934 23.6597 6.08708 23.6919 5.73975C23.7277 5.39242 23.7528 5.02539 23.7671 4.63867C23.785 4.25195 23.7975 3.85986 23.8047 3.4624C23.8154 3.06136 23.8208 2.66211 23.8208 2.26465C23.8244 1.86361 23.8298 1.47689 23.8369 1.10449H28.7461V9H27.688V2.02832Z" fill="#181818"/>
<path d="M34.5576 5.74512L33.3545 2.23242L32.0225 5.74512H34.5576ZM29.7559 9L32.7153 0.980957H33.999L36.8618 9H35.6909L34.8584 6.58301H31.7539L30.873 9H29.7559Z" fill="#181818"/>
<path d="M37.8447 1.10449H39.3594L41.5938 7.74854H41.6152L43.8496 1.10449H45.3643V9H44.376V2.35596H44.3545L42.1309 9H41.0781L38.8545 2.35596H38.833V9H37.8447V1.10449Z" fill="#181818"/>
<path d="M51.1865 5.74512L49.9834 2.23242L48.6514 5.74512H51.1865ZM46.3848 9L49.3442 0.980957H50.6279L53.4907 9H52.3198L51.4873 6.58301H48.3828L47.502 9H46.3848Z" fill="#181818"/>
<path d="M54.5703 10.1226C54.8174 10.0796 54.991 9.90592 55.0913 9.60156C55.145 9.44043 55.1719 9.28467 55.1719 9.13428C55.1719 9.10921 55.1701 9.08594 55.1665 9.06445C55.1665 9.04655 55.1629 9.02507 55.1558 9H54.5703V7.8291H55.7197V8.91406C55.7197 9.34017 55.6338 9.71436 55.4619 10.0366C55.29 10.3589 54.9928 10.5576 54.5703 10.6328V10.1226Z" fill="#181818"/>
<path d="M60.5967 1.10449H61.6494V4.9502L65.5005 1.10449H66.9722L63.6851 4.28955L67.0635 9H65.71L62.9277 5.02002L61.6494 6.25V9H60.5967V1.10449Z" fill="#181818"/>
<path d="M75.2437 5.05225C75.2437 5.39242 75.2096 5.73258 75.1416 6.07275C75.0736 6.40934 74.9697 6.73161 74.8301 7.03955C74.6904 7.34391 74.515 7.62858 74.3037 7.89355C74.096 8.15495 73.849 8.38411 73.5625 8.58105C73.276 8.77441 72.952 8.9248 72.5903 9.03223C72.2323 9.14323 71.8348 9.19873 71.3979 9.19873C70.9611 9.19873 70.5619 9.14323 70.2002 9.03223C69.8385 8.9248 69.5145 8.77441 69.228 8.58105C68.9452 8.38411 68.6981 8.15495 68.4868 7.89355C68.2756 7.62858 68.1001 7.34391 67.9604 7.03955C67.8208 6.73161 67.717 6.40934 67.6489 6.07275C67.5809 5.73258 67.5469 5.39242 67.5469 5.05225C67.5469 4.43994 67.6328 3.87956 67.8047 3.37109C67.9801 2.86263 68.2326 2.42578 68.562 2.06055C68.8914 1.69531 69.2943 1.41243 69.7705 1.21191C70.2467 1.00781 70.7892 0.905762 71.3979 0.905762C72.0031 0.905762 72.5438 1.00781 73.02 1.21191C73.4998 1.41243 73.9027 1.69531 74.2285 2.06055C74.5579 2.42578 74.8086 2.86263 74.9805 3.37109C75.1559 3.87956 75.2437 4.43994 75.2437 5.05225ZM74.1909 5.05225C74.1909 4.58317 74.1283 4.15169 74.0029 3.75781C73.8776 3.36035 73.695 3.02018 73.4551 2.7373C73.2188 2.45085 72.9269 2.22884 72.5796 2.07129C72.2323 1.91016 71.8384 1.82959 71.3979 1.82959C70.9539 1.82959 70.5583 1.91016 70.2109 2.07129C69.8636 2.22884 69.57 2.45085 69.3301 2.7373C69.0938 3.02018 68.9129 3.36035 68.7876 3.75781C68.6623 4.15169 68.5996 4.58317 68.5996 5.05225C68.5996 5.53206 68.6569 5.9707 68.7715 6.36816C68.8861 6.76204 69.0597 7.10042 69.2925 7.3833C69.5252 7.66618 69.8153 7.88639 70.1626 8.04395C70.5135 8.19792 70.9253 8.2749 71.3979 8.2749C71.867 8.2749 72.277 8.19792 72.6279 8.04395C72.9788 7.88639 73.2689 7.66618 73.498 7.3833C73.7308 7.10042 73.9045 6.76204 74.019 6.36816C74.1336 5.9707 74.1909 5.53206 74.1909 5.05225Z" fill="#181818"/>
<path d="M75.8345 1.10449H82.2583V2.02832H79.5728V9H78.5146V2.02832H75.8345V1.10449Z" fill="#181818"/>
<path d="M90.5298 5.05225C90.5298 5.39242 90.4958 5.73258 90.4277 6.07275C90.3597 6.40934 90.2559 6.73161 90.1162 7.03955C89.9766 7.34391 89.8011 7.62858 89.5898 7.89355C89.3822 8.15495 89.1351 8.38411 88.8486 8.58105C88.5622 8.77441 88.2381 8.9248 87.8765 9.03223C87.5184 9.14323 87.1209 9.19873 86.6841 9.19873C86.2472 9.19873 85.848 9.14323 85.4863 9.03223C85.1247 8.9248 84.8006 8.77441 84.5142 8.58105C84.2313 8.38411 83.9842 8.15495 83.7729 7.89355C83.5617 7.62858 83.3862 7.34391 83.2466 7.03955C83.1069 6.73161 83.0031 6.40934 82.9351 6.07275C82.867 5.73258 82.833 5.39242 82.833 5.05225C82.833 4.43994 82.9189 3.87956 83.0908 3.37109C83.2663 2.86263 83.5187 2.42578 83.8481 2.06055C84.1776 1.69531 84.5804 1.41243 85.0566 1.21191C85.5329 1.00781 86.0754 0.905762 86.6841 0.905762C87.2892 0.905762 87.8299 1.00781 88.3062 1.21191C88.786 1.41243 89.1888 1.69531 89.5146 2.06055C89.8441 2.42578 90.0947 2.86263 90.2666 3.37109C90.4421 3.87956 90.5298 4.43994 90.5298 5.05225ZM89.4771 5.05225C89.4771 4.58317 89.4144 4.15169 89.2891 3.75781C89.1637 3.36035 88.9811 3.02018 88.7412 2.7373C88.5049 2.45085 88.2131 2.22884 87.8657 2.07129C87.5184 1.91016 87.1245 1.82959 86.6841 1.82959C86.2401 1.82959 85.8444 1.91016 85.4971 2.07129C85.1497 2.22884 84.8561 2.45085 84.6162 2.7373C84.3799 3.02018 84.1991 3.36035 84.0737 3.75781C83.9484 4.15169 83.8857 4.58317 83.8857 5.05225C83.8857 5.53206 83.943 5.9707 84.0576 6.36816C84.1722 6.76204 84.3459 7.10042 84.5786 7.3833C84.8114 7.66618 85.1014 7.88639 85.4487 8.04395C85.7996 8.19792 86.2114 8.2749 86.6841 8.2749C87.1532 8.2749 87.5631 8.19792 87.9141 8.04395C88.265 7.88639 88.555 7.66618 88.7842 7.3833C89.0169 7.10042 89.1906 6.76204 89.3052 6.36816C89.4198 5.9707 89.4771 5.53206 89.4771 5.05225Z" fill="#181818"/>
<path d="M94.9932 4.7998C95.5518 4.7998 95.9546 4.68164 96.2017 4.44531C96.4487 4.20898 96.5723 3.86523 96.5723 3.41406C96.5723 2.96289 96.4487 2.61914 96.2017 2.38281C95.9546 2.14648 95.5518 2.02832 94.9932 2.02832H92.834V4.7998H94.9932ZM91.7812 1.10449H95.1006C95.5339 1.10449 95.908 1.15999 96.2231 1.271C96.5418 1.382 96.805 1.53955 97.0127 1.74365C97.2204 1.94417 97.3744 2.18587 97.4746 2.46875C97.5785 2.75163 97.6304 3.06673 97.6304 3.41406C97.6304 3.76139 97.5785 4.0765 97.4746 4.35938C97.3744 4.64225 97.2204 4.88574 97.0127 5.08984C96.805 5.29036 96.5418 5.44613 96.2231 5.55713C95.908 5.66813 95.5339 5.72363 95.1006 5.72363H92.834V9H91.7812V1.10449Z" fill="#181818"/>
<path d="M103.297 5.74512L102.094 2.23242L100.762 5.74512H103.297ZM98.4951 9L101.455 0.980957H102.738L105.601 9H104.43L103.598 6.58301H100.493L99.6123 9H98.4951Z" fill="#181818"/>
<path d="M112.809 9H111.751V5.64307H109.785C109.567 5.64307 109.382 5.64665 109.232 5.65381C109.085 5.65739 108.958 5.66813 108.851 5.68604C108.747 5.70036 108.657 5.72184 108.582 5.75049C108.51 5.77555 108.441 5.80957 108.373 5.85254C108.29 5.90625 108.219 5.96712 108.158 6.03516C108.097 6.09961 108.043 6.18197 107.997 6.28223C107.954 6.38249 107.918 6.50602 107.889 6.65283C107.861 6.79964 107.839 6.98047 107.825 7.19531L107.771 8.05469C107.764 8.15853 107.755 8.25342 107.744 8.33936C107.733 8.42171 107.719 8.4987 107.701 8.57031C107.683 8.64193 107.662 8.71354 107.637 8.78516C107.615 8.85319 107.587 8.9248 107.551 9H106.337C106.38 8.95345 106.421 8.90153 106.46 8.84424C106.5 8.78695 106.536 8.71891 106.568 8.64014C106.6 8.55778 106.629 8.4611 106.654 8.3501C106.679 8.2391 106.699 8.10661 106.713 7.95264L106.804 6.87842C106.819 6.69938 106.84 6.52751 106.869 6.36279C106.897 6.19808 106.949 6.04411 107.024 5.90088C107.1 5.75765 107.209 5.62874 107.352 5.51416C107.499 5.39958 107.698 5.30469 107.948 5.22949C107.834 5.18652 107.699 5.12923 107.545 5.05762C107.391 4.986 107.243 4.88037 107.1 4.74072C106.96 4.60107 106.84 4.41846 106.74 4.19287C106.643 3.9637 106.595 3.67367 106.595 3.32275C106.595 3.0721 106.623 2.84473 106.681 2.64062C106.738 2.43652 106.813 2.2557 106.906 2.09814C106.999 1.93701 107.105 1.80094 107.223 1.68994C107.345 1.57536 107.468 1.48226 107.594 1.41064C107.726 1.33545 107.878 1.27637 108.05 1.2334C108.226 1.19043 108.403 1.15999 108.582 1.14209C108.761 1.12419 108.933 1.11344 109.098 1.10986C109.266 1.10628 109.413 1.10449 109.538 1.10449H112.809V9ZM111.751 2.03906H109.334C109.241 2.03906 109.146 2.04085 109.049 2.04443C108.953 2.04443 108.856 2.0498 108.759 2.06055C108.663 2.07129 108.569 2.08919 108.48 2.11426C108.39 2.13574 108.308 2.16797 108.233 2.21094C108.125 2.27181 108.034 2.34701 107.959 2.43652C107.884 2.52604 107.821 2.62451 107.771 2.73193C107.724 2.83936 107.69 2.95036 107.669 3.06494C107.647 3.17952 107.637 3.29232 107.637 3.40332C107.637 3.47852 107.642 3.56266 107.653 3.65576C107.664 3.74528 107.687 3.84017 107.723 3.94043C107.758 4.03711 107.809 4.13379 107.873 4.23047C107.938 4.32357 108.023 4.40951 108.131 4.48828C108.224 4.5599 108.317 4.6154 108.41 4.65479C108.507 4.69059 108.609 4.71745 108.716 4.73535C108.824 4.74967 108.938 4.75684 109.06 4.75684C109.185 4.75684 109.323 4.75505 109.474 4.75146H111.751V2.03906Z" fill="#181818"/>
<path d="M117.509 1.10449H123.82V9H122.762V2.02832H118.562V9H117.509V1.10449Z" fill="#181818"/>
<path d="M128.67 4.7998C129.229 4.7998 129.631 4.68164 129.878 4.44531C130.125 4.20898 130.249 3.86523 130.249 3.41406C130.249 2.96289 130.125 2.61914 129.878 2.38281C129.631 2.14648 129.229 2.02832 128.67 2.02832H126.511V4.7998H128.67ZM125.458 1.10449H128.777C129.211 1.10449 129.585 1.15999 129.9 1.271C130.219 1.382 130.482 1.53955 130.689 1.74365C130.897 1.94417 131.051 2.18587 131.151 2.46875C131.255 2.75163 131.307 3.06673 131.307 3.41406C131.307 3.76139 131.255 4.0765 131.151 4.35938C131.051 4.64225 130.897 4.88574 130.689 5.08984C130.482 5.29036 130.219 5.44613 129.9 5.55713C129.585 5.66813 129.211 5.72363 128.777 5.72363H126.511V9H125.458V1.10449Z" fill="#181818"/>
<path d="M140.105 5.05225C140.105 5.39242 140.071 5.73258 140.003 6.07275C139.935 6.40934 139.831 6.73161 139.691 7.03955C139.552 7.34391 139.376 7.62858 139.165 7.89355C138.957 8.15495 138.71 8.38411 138.424 8.58105C138.137 8.77441 137.813 8.9248 137.452 9.03223C137.094 9.14323 136.696 9.19873 136.259 9.19873C135.822 9.19873 135.423 9.14323 135.062 9.03223C134.7 8.9248 134.376 8.77441 134.089 8.58105C133.806 8.38411 133.559 8.15495 133.348 7.89355C133.137 7.62858 132.961 7.34391 132.822 7.03955C132.682 6.73161 132.578 6.40934 132.51 6.07275C132.442 5.73258 132.408 5.39242 132.408 5.05225C132.408 4.43994 132.494 3.87956 132.666 3.37109C132.841 2.86263 133.094 2.42578 133.423 2.06055C133.753 1.69531 134.156 1.41243 134.632 1.21191C135.108 1.00781 135.651 0.905762 136.259 0.905762C136.864 0.905762 137.405 1.00781 137.881 1.21191C138.361 1.41243 138.764 1.69531 139.09 2.06055C139.419 2.42578 139.67 2.86263 139.842 3.37109C140.017 3.87956 140.105 4.43994 140.105 5.05225ZM139.052 5.05225C139.052 4.58317 138.99 4.15169 138.864 3.75781C138.739 3.36035 138.556 3.02018 138.316 2.7373C138.08 2.45085 137.788 2.22884 137.441 2.07129C137.094 1.91016 136.7 1.82959 136.259 1.82959C135.815 1.82959 135.42 1.91016 135.072 2.07129C134.725 2.22884 134.431 2.45085 134.191 2.7373C133.955 3.02018 133.774 3.36035 133.649 3.75781C133.524 4.15169 133.461 4.58317 133.461 5.05225C133.461 5.53206 133.518 5.9707 133.633 6.36816C133.747 6.76204 133.921 7.10042 134.154 7.3833C134.387 7.66618 134.677 7.88639 135.024 8.04395C135.375 8.19792 135.787 8.2749 136.259 8.2749C136.728 8.2749 137.138 8.19792 137.489 8.04395C137.84 7.88639 138.13 7.66618 138.359 7.3833C138.592 7.10042 138.766 6.76204 138.88 6.36816C138.995 5.9707 139.052 5.53206 139.052 5.05225Z" fill="#181818"/>
<path d="M140.739 10.6919V8.07617H141.453C141.528 7.9043 141.598 7.73063 141.663 7.55518C141.727 7.37614 141.786 7.17562 141.84 6.95361C141.897 6.72803 141.949 6.47021 141.996 6.18018C142.046 5.89014 142.092 5.54639 142.135 5.14893C142.185 4.72998 142.225 4.3182 142.253 3.91357C142.282 3.50537 142.304 3.12402 142.318 2.76953C142.336 2.41504 142.347 2.09456 142.35 1.80811C142.357 1.52165 142.363 1.28711 142.366 1.10449H147.329V8.07617H148.221V10.6919H147.232V9H141.727V10.6919H140.739ZM143.354 2.02832C143.354 2.54036 143.333 3.05062 143.29 3.55908C143.251 4.06755 143.202 4.57959 143.145 5.09521C143.106 5.50342 143.064 5.85075 143.021 6.13721C142.982 6.42008 142.939 6.67253 142.893 6.89453C142.85 7.11296 142.799 7.31527 142.742 7.50146C142.688 7.68408 142.626 7.87565 142.554 8.07617H146.244V2.02832H143.354Z" fill="#181818"/>
<path d="M153.248 5.74512L152.045 2.23242L150.713 5.74512H153.248ZM148.446 9L151.406 0.980957H152.689L155.552 9H154.381L153.549 6.58301H150.444L149.563 9H148.446Z" fill="#181818"/>
<path d="M156.535 1.10449H162.298V2.02832H157.588V4.4668H161.933V5.39062H157.588V8.07617H162.374V9H156.535V1.10449Z" fill="#181818"/>
<path d="M163.211 1.10449H169.635V2.02832H166.95V9H165.892V2.02832H163.211V1.10449Z" fill="#181818"/>
</svg>
