<svg width="384" height="29" viewBox="0 0 384 29" fill="none" xmlns="http://www.w3.org/2000/svg">
<path d="M217.645 14.7998C218.203 14.7998 218.606 14.6816 218.853 14.4453C219.1 14.209 219.224 13.8652 219.224 13.4141C219.224 12.9629 219.1 12.6191 218.853 12.3828C218.606 12.1465 218.203 12.0283 217.645 12.0283H215.485V14.7998H217.645ZM214.433 11.1045H217.752C218.185 11.1045 218.559 11.16 218.875 11.271C219.193 11.382 219.456 11.5396 219.664 11.7437C219.872 11.9442 220.026 12.1859 220.126 12.4688C220.23 12.7516 220.282 13.0667 220.282 13.4141C220.282 13.7614 220.23 14.0765 220.126 14.3594C220.026 14.6423 219.872 14.8857 219.664 15.0898C219.456 15.2904 219.193 15.4461 218.875 15.5571C218.559 15.6681 218.185 15.7236 217.752 15.7236H215.485V19H214.433V11.1045Z" fill="#181818"/>
<path d="M221.77 11.1045H227.533V12.0283H222.822V14.4668H227.167V15.3906H222.822V18.0762H227.608V19H221.77V11.1045Z" fill="#181818"/>
<path d="M229.106 11.1045H230.159V14.9502L234.01 11.1045H235.482L232.195 14.2896L235.573 19H234.22L231.438 15.02L230.159 16.25V19H229.106V11.1045Z" fill="#181818"/>
<path d="M241.304 12.0283H238.484C238.484 12.6406 238.477 13.2422 238.463 13.833C238.449 14.4238 238.418 14.9842 238.372 15.5142C238.325 16.0405 238.255 16.5257 238.162 16.9697C238.069 17.4137 237.942 17.7987 237.781 18.1245C237.62 18.4468 237.419 18.6992 237.179 18.8818C236.943 19.0609 236.655 19.1504 236.314 19.1504C236.211 19.1504 236.123 19.1414 236.051 19.1235C235.983 19.1056 235.908 19.0859 235.826 19.0645V18.0869C235.865 18.1048 235.913 18.1209 235.971 18.1353C236.032 18.146 236.118 18.1514 236.229 18.1514C236.393 18.1514 236.535 18.0923 236.653 17.9741C236.775 17.8524 236.878 17.6841 236.964 17.4692C237.05 17.2544 237.12 17.0002 237.174 16.7065C237.231 16.4093 237.276 16.0871 237.308 15.7397C237.344 15.3924 237.369 15.0254 237.383 14.6387C237.401 14.252 237.414 13.8599 237.421 13.4624C237.432 13.0614 237.437 12.6621 237.437 12.2646C237.441 11.8636 237.446 11.4769 237.453 11.1045H242.362V19H241.304V12.0283Z" fill="#181818"/>
<path d="M248.174 15.7451L246.971 12.2324L245.639 15.7451H248.174ZM243.372 19L246.332 10.981H247.615L250.478 19H249.307L248.475 16.583H245.37L244.489 19H243.372Z" fill="#181818"/>
<path d="M251.461 11.1045H252.976L255.21 17.7485H255.231L257.466 11.1045H258.98V19H257.992V12.356H257.971L255.747 19H254.694L252.471 12.356H252.449V19H251.461V11.1045Z" fill="#181818"/>
<path d="M264.803 15.7451L263.6 12.2324L262.268 15.7451H264.803ZM260.001 19L262.96 10.981H264.244L267.107 19H265.936L265.104 16.583H261.999L261.118 19H260.001Z" fill="#181818"/>
<path d="M268.187 20.1226C268.434 20.0796 268.607 19.9059 268.708 19.6016C268.761 19.4404 268.788 19.2847 268.788 19.1343C268.788 19.1092 268.786 19.0859 268.783 19.0645C268.783 19.0465 268.779 19.0251 268.772 19H268.187V17.8291H269.336V18.9141C269.336 19.3402 269.25 19.7144 269.078 20.0366C268.906 20.3589 268.609 20.5576 268.187 20.6328V20.1226Z" fill="#181818"/>
<path d="M274.213 11.1045H275.266V14.9502L279.117 11.1045H280.588L277.301 14.2896L280.68 19H279.326L276.544 15.02L275.266 16.25V19H274.213V11.1045Z" fill="#181818"/>
<path d="M288.86 15.0522C288.86 15.3924 288.826 15.7326 288.758 16.0728C288.69 16.4093 288.586 16.7316 288.446 17.0396C288.307 17.3439 288.131 17.6286 287.92 17.8936C287.712 18.1549 287.465 18.3841 287.179 18.5811C286.892 18.7744 286.568 18.9248 286.207 19.0322C285.848 19.1432 285.451 19.1987 285.014 19.1987C284.577 19.1987 284.178 19.1432 283.816 19.0322C283.455 18.9248 283.131 18.7744 282.844 18.5811C282.561 18.3841 282.314 18.1549 282.103 17.8936C281.892 17.6286 281.716 17.3439 281.577 17.0396C281.437 16.7316 281.333 16.4093 281.265 16.0728C281.197 15.7326 281.163 15.3924 281.163 15.0522C281.163 14.4399 281.249 13.8796 281.421 13.3711C281.596 12.8626 281.849 12.4258 282.178 12.0605C282.508 11.6953 282.91 11.4124 283.387 11.2119C283.863 11.0078 284.405 10.9058 285.014 10.9058C285.619 10.9058 286.16 11.0078 286.636 11.2119C287.116 11.4124 287.519 11.6953 287.845 12.0605C288.174 12.4258 288.425 12.8626 288.597 13.3711C288.772 13.8796 288.86 14.4399 288.86 15.0522ZM287.807 15.0522C287.807 14.5832 287.744 14.1517 287.619 13.7578C287.494 13.3604 287.311 13.0202 287.071 12.7373C286.835 12.4508 286.543 12.2288 286.196 12.0713C285.848 11.9102 285.455 11.8296 285.014 11.8296C284.57 11.8296 284.174 11.9102 283.827 12.0713C283.48 12.2288 283.186 12.4508 282.946 12.7373C282.71 13.0202 282.529 13.3604 282.404 13.7578C282.278 14.1517 282.216 14.5832 282.216 15.0522C282.216 15.5321 282.273 15.9707 282.388 16.3682C282.502 16.762 282.676 17.1004 282.909 17.3833C283.141 17.6662 283.431 17.8864 283.779 18.0439C284.13 18.1979 284.542 18.2749 285.014 18.2749C285.483 18.2749 285.893 18.1979 286.244 18.0439C286.595 17.8864 286.885 17.6662 287.114 17.3833C287.347 17.1004 287.521 16.762 287.635 16.3682C287.75 15.9707 287.807 15.5321 287.807 15.0522Z" fill="#181818"/>
<path d="M289.451 11.1045H295.875V12.0283H293.189V19H292.131V12.0283H289.451V11.1045Z" fill="#181818"/>
<path d="M304.146 15.0522C304.146 15.3924 304.112 15.7326 304.044 16.0728C303.976 16.4093 303.872 16.7316 303.732 17.0396C303.593 17.3439 303.417 17.6286 303.206 17.8936C302.998 18.1549 302.751 18.3841 302.465 18.5811C302.178 18.7744 301.854 18.9248 301.493 19.0322C301.135 19.1432 300.737 19.1987 300.3 19.1987C299.863 19.1987 299.464 19.1432 299.103 19.0322C298.741 18.9248 298.417 18.7744 298.13 18.5811C297.847 18.3841 297.6 18.1549 297.389 17.8936C297.178 17.6286 297.002 17.3439 296.863 17.0396C296.723 16.7316 296.619 16.4093 296.551 16.0728C296.483 15.7326 296.449 15.3924 296.449 15.0522C296.449 14.4399 296.535 13.8796 296.707 13.3711C296.882 12.8626 297.135 12.4258 297.464 12.0605C297.794 11.6953 298.197 11.4124 298.673 11.2119C299.149 11.0078 299.692 10.9058 300.3 10.9058C300.905 10.9058 301.446 11.0078 301.922 11.2119C302.402 11.4124 302.805 11.6953 303.131 12.0605C303.46 12.4258 303.711 12.8626 303.883 13.3711C304.058 13.8796 304.146 14.4399 304.146 15.0522ZM303.093 15.0522C303.093 14.5832 303.031 14.1517 302.905 13.7578C302.78 13.3604 302.597 13.0202 302.357 12.7373C302.121 12.4508 301.829 12.2288 301.482 12.0713C301.135 11.9102 300.741 11.8296 300.3 11.8296C299.856 11.8296 299.461 11.9102 299.113 12.0713C298.766 12.2288 298.472 12.4508 298.232 12.7373C297.996 13.0202 297.815 13.3604 297.69 13.7578C297.565 14.1517 297.502 14.5832 297.502 15.0522C297.502 15.5321 297.559 15.9707 297.674 16.3682C297.788 16.762 297.962 17.1004 298.195 17.3833C298.428 17.6662 298.718 17.8864 299.065 18.0439C299.416 18.1979 299.828 18.2749 300.3 18.2749C300.769 18.2749 301.179 18.1979 301.53 18.0439C301.881 17.8864 302.171 17.6662 302.4 17.3833C302.633 17.1004 302.807 16.762 302.921 16.3682C303.036 15.9707 303.093 15.5321 303.093 15.0522Z" fill="#181818"/>
<path d="M308.609 14.7998C309.168 14.7998 309.571 14.6816 309.818 14.4453C310.065 14.209 310.188 13.8652 310.188 13.4141C310.188 12.9629 310.065 12.6191 309.818 12.3828C309.571 12.1465 309.168 12.0283 308.609 12.0283H306.45V14.7998H308.609ZM305.397 11.1045H308.717C309.15 11.1045 309.524 11.16 309.839 11.271C310.158 11.382 310.421 11.5396 310.629 11.7437C310.837 11.9442 310.991 12.1859 311.091 12.4688C311.195 12.7516 311.247 13.0667 311.247 13.4141C311.247 13.7614 311.195 14.0765 311.091 14.3594C310.991 14.6423 310.837 14.8857 310.629 15.0898C310.421 15.2904 310.158 15.4461 309.839 15.5571C309.524 15.6681 309.15 15.7236 308.717 15.7236H306.45V19H305.397V11.1045Z" fill="#181818"/>
<path d="M316.913 15.7451L315.71 12.2324L314.378 15.7451H316.913ZM312.111 19L315.071 10.981H316.354L319.217 19H318.046L317.214 16.583H314.109L313.229 19H312.111Z" fill="#181818"/>
<path d="M326.425 19H325.367V15.6431H323.401C323.183 15.6431 322.999 15.6466 322.848 15.6538C322.701 15.6574 322.574 15.6681 322.467 15.686C322.363 15.7004 322.273 15.7218 322.198 15.7505C322.127 15.7756 322.057 15.8096 321.989 15.8525C321.906 15.9062 321.835 15.9671 321.774 16.0352C321.713 16.0996 321.659 16.182 321.613 16.2822C321.57 16.3825 321.534 16.506 321.505 16.6528C321.477 16.7996 321.455 16.9805 321.441 17.1953L321.387 18.0547C321.38 18.1585 321.371 18.2534 321.36 18.3394C321.35 18.4217 321.335 18.4987 321.317 18.5703C321.299 18.6419 321.278 18.7135 321.253 18.7852C321.231 18.8532 321.203 18.9248 321.167 19H319.953C319.996 18.9535 320.037 18.9015 320.077 18.8442C320.116 18.7869 320.152 18.7189 320.184 18.6401C320.216 18.5578 320.245 18.4611 320.27 18.3501C320.295 18.2391 320.315 18.1066 320.329 17.9526L320.42 16.8784C320.435 16.6994 320.456 16.5275 320.485 16.3628C320.514 16.1981 320.565 16.0441 320.641 15.9009C320.716 15.7576 320.825 15.6287 320.968 15.5142C321.115 15.3996 321.314 15.3047 321.564 15.2295C321.45 15.1865 321.316 15.1292 321.162 15.0576C321.008 14.986 320.859 14.8804 320.716 14.7407C320.576 14.6011 320.456 14.4185 320.356 14.1929C320.259 13.9637 320.211 13.6737 320.211 13.3228C320.211 13.0721 320.24 12.8447 320.297 12.6406C320.354 12.4365 320.429 12.2557 320.522 12.0981C320.616 11.937 320.721 11.8009 320.839 11.6899C320.961 11.5754 321.085 11.4823 321.21 11.4106C321.342 11.3354 321.495 11.2764 321.667 11.2334C321.842 11.1904 322.019 11.16 322.198 11.1421C322.377 11.1242 322.549 11.1134 322.714 11.1099C322.882 11.1063 323.029 11.1045 323.154 11.1045H326.425V19ZM325.367 12.0391H322.95C322.857 12.0391 322.762 12.0409 322.666 12.0444C322.569 12.0444 322.472 12.0498 322.375 12.0605C322.279 12.0713 322.186 12.0892 322.096 12.1143C322.007 12.1357 321.924 12.168 321.849 12.2109C321.742 12.2718 321.65 12.347 321.575 12.4365C321.5 12.526 321.437 12.6245 321.387 12.7319C321.341 12.8394 321.307 12.9504 321.285 13.0649C321.264 13.1795 321.253 13.2923 321.253 13.4033C321.253 13.4785 321.258 13.5627 321.269 13.6558C321.28 13.7453 321.303 13.8402 321.339 13.9404C321.375 14.0371 321.425 14.1338 321.489 14.2305C321.554 14.3236 321.64 14.4095 321.747 14.4883C321.84 14.5599 321.933 14.6154 322.026 14.6548C322.123 14.6906 322.225 14.7174 322.333 14.7354C322.44 14.7497 322.555 14.7568 322.676 14.7568C322.802 14.7568 322.939 14.755 323.09 14.7515H325.367V12.0391Z" fill="#181818"/>
<path d="M331.125 11.1045H337.436V19H336.378V12.0283H332.178V19H331.125V11.1045Z" fill="#181818"/>
<path d="M342.286 14.7998C342.845 14.7998 343.248 14.6816 343.495 14.4453C343.742 14.209 343.865 13.8652 343.865 13.4141C343.865 12.9629 343.742 12.6191 343.495 12.3828C343.248 12.1465 342.845 12.0283 342.286 12.0283H340.127V14.7998H342.286ZM339.074 11.1045H342.394C342.827 11.1045 343.201 11.16 343.516 11.271C343.835 11.382 344.098 11.5396 344.306 11.7437C344.513 11.9442 344.667 12.1859 344.768 12.4688C344.871 12.7516 344.923 13.0667 344.923 13.4141C344.923 13.7614 344.871 14.0765 344.768 14.3594C344.667 14.6423 344.513 14.8857 344.306 15.0898C344.098 15.2904 343.835 15.4461 343.516 15.5571C343.201 15.6681 342.827 15.7236 342.394 15.7236H340.127V19H339.074V11.1045Z" fill="#181818"/>
<path d="M353.721 15.0522C353.721 15.3924 353.687 15.7326 353.619 16.0728C353.551 16.4093 353.447 16.7316 353.308 17.0396C353.168 17.3439 352.993 17.6286 352.781 17.8936C352.574 18.1549 352.326 18.3841 352.04 18.5811C351.754 18.7744 351.43 18.9248 351.068 19.0322C350.71 19.1432 350.312 19.1987 349.875 19.1987C349.439 19.1987 349.039 19.1432 348.678 19.0322C348.316 18.9248 347.992 18.7744 347.706 18.5811C347.423 18.3841 347.176 18.1549 346.964 17.8936C346.753 17.6286 346.578 17.3439 346.438 17.0396C346.298 16.7316 346.194 16.4093 346.126 16.0728C346.058 15.7326 346.024 15.3924 346.024 15.0522C346.024 14.4399 346.11 13.8796 346.282 13.3711C346.458 12.8626 346.71 12.4258 347.04 12.0605C347.369 11.6953 347.772 11.4124 348.248 11.2119C348.724 11.0078 349.267 10.9058 349.875 10.9058C350.481 10.9058 351.021 11.0078 351.498 11.2119C351.977 11.4124 352.38 11.6953 352.706 12.0605C353.035 12.4258 353.286 12.8626 353.458 13.3711C353.633 13.8796 353.721 14.4399 353.721 15.0522ZM352.668 15.0522C352.668 14.5832 352.606 14.1517 352.48 13.7578C352.355 13.3604 352.173 13.0202 351.933 12.7373C351.696 12.4508 351.404 12.2288 351.057 12.0713C350.71 11.9102 350.316 11.8296 349.875 11.8296C349.431 11.8296 349.036 11.9102 348.688 12.0713C348.341 12.2288 348.048 12.4508 347.808 12.7373C347.571 13.0202 347.39 13.3604 347.265 13.7578C347.14 14.1517 347.077 14.5832 347.077 15.0522C347.077 15.5321 347.134 15.9707 347.249 16.3682C347.364 16.762 347.537 17.1004 347.77 17.3833C348.003 17.6662 348.293 17.8864 348.64 18.0439C348.991 18.1979 349.403 18.2749 349.875 18.2749C350.345 18.2749 350.755 18.1979 351.105 18.0439C351.456 17.8864 351.746 17.6662 351.976 17.3833C352.208 17.1004 352.382 16.762 352.497 16.3682C352.611 15.9707 352.668 15.5321 352.668 15.0522Z" fill="#181818"/>
<path d="M354.355 20.6919V18.0762H355.069C355.145 17.9043 355.214 17.7306 355.279 17.5552C355.343 17.3761 355.402 17.1756 355.456 16.9536C355.513 16.728 355.565 16.4702 355.612 16.1802C355.662 15.8901 355.708 15.5464 355.751 15.1489C355.802 14.73 355.841 14.3182 355.87 13.9136C355.898 13.5054 355.92 13.124 355.934 12.7695C355.952 12.415 355.963 12.0946 355.966 11.8081C355.973 11.5216 355.979 11.2871 355.982 11.1045H360.945V18.0762H361.837V20.6919H360.849V19H355.343V20.6919H354.355ZM356.971 12.0283C356.971 12.5404 356.949 13.0506 356.906 13.5591C356.867 14.0675 356.819 14.5796 356.761 15.0952C356.722 15.5034 356.681 15.8507 356.638 16.1372C356.598 16.4201 356.555 16.6725 356.509 16.8945C356.466 17.113 356.416 17.3153 356.358 17.5015C356.305 17.6841 356.242 17.8757 356.17 18.0762H359.86V12.0283H356.971Z" fill="#181818"/>
<path d="M366.864 15.7451L365.661 12.2324L364.329 15.7451H366.864ZM362.062 19L365.022 10.981H366.306L369.168 19H367.998L367.165 16.583H364.061L363.18 19H362.062Z" fill="#181818"/>
<path d="M370.151 11.1045H375.915V12.0283H371.204V14.4668H375.549V15.3906H371.204V18.0762H375.99V19H370.151V11.1045Z" fill="#181818"/>
<path d="M376.828 11.1045H383.251V12.0283H380.566V19H379.508V12.0283H376.828V11.1045Z" fill="#181818"/>
<path d="M198.616 0V29H197.616V0H198.616Z" fill="#EAEAEA"/>
<path d="M0 8.876V5.78H13.284V8.876H8.268V23H5.028V8.876H0Z" fill="#EF0D37"/>
<path d="M13.9954 14.396C13.9954 12.748 14.3834 11.248 15.1594 9.896C15.9354 8.544 17.0034 7.484 18.3634 6.716C19.7234 5.94 21.2314 5.552 22.8874 5.552C24.5434 5.552 26.0514 5.94 27.4114 6.716C28.7794 7.484 29.8514 8.544 30.6274 9.896C31.4114 11.248 31.8034 12.748 31.8034 14.396C31.8034 16.036 31.4114 17.532 30.6274 18.884C29.8514 20.236 28.7794 21.3 27.4114 22.076C26.0514 22.844 24.5434 23.228 22.8874 23.228C21.2314 23.228 19.7234 22.844 18.3634 22.076C17.0034 21.3 15.9354 20.236 15.1594 18.884C14.3834 17.532 13.9954 16.036 13.9954 14.396ZM17.2354 14.396C17.2354 16.004 17.7794 17.356 18.8674 18.452C19.9554 19.54 21.2994 20.084 22.8994 20.084C24.4994 20.084 25.8434 19.54 26.9314 18.452C28.0194 17.356 28.5634 16.004 28.5634 14.396C28.5634 12.78 28.0194 11.428 26.9314 10.34C25.8434 9.244 24.4994 8.696 22.8994 8.696C21.8514 8.696 20.8914 8.944 20.0194 9.44C19.1554 9.936 18.4754 10.624 17.9794 11.504C17.4834 12.376 17.2354 13.34 17.2354 14.396Z" fill="#EF0D37"/>
<path d="M49.5069 5.78V23H46.2669V8.792H38.2389V23H34.9989V5.78H49.5069Z" fill="#EF0D37"/>
<path d="M61.2489 23V5.78H68.1489C69.8529 5.78 71.2529 6.304 72.3489 7.352C73.4529 8.392 74.0049 9.72 74.0049 11.336C74.0049 12.952 73.4529 14.28 72.3489 15.32C71.2449 16.36 69.8449 16.88 68.1489 16.88H64.4889V23H61.2489ZM64.4889 13.796H68.1489C68.9089 13.796 69.5329 13.564 70.0209 13.1C70.5169 12.636 70.7649 12.048 70.7649 11.336C70.7649 10.624 70.5169 10.036 70.0209 9.572C69.5329 9.108 68.9089 8.876 68.1489 8.876H64.4889V13.796Z" fill="#EF0D37"/>
<path d="M87.3958 23H76.2958V5.78H87.3958V8.912H79.5358V12.716H85.9198V15.728H79.5358V19.868H87.3958V23Z" fill="#EF0D37"/>
<path d="M100.454 6.584C100.806 6.048 101.278 5.78 101.87 5.78H104.894L99.3139 13.412C99.1859 13.596 99.0219 13.764 98.8219 13.916C98.6299 14.06 98.4379 14.14 98.2459 14.156V14.18C98.4459 14.212 98.6499 14.304 98.8579 14.456C99.0659 14.608 99.2259 14.764 99.3379 14.924L105.35 23H102.386C102.074 23 101.774 22.92 101.486 22.76C101.206 22.6 100.978 22.392 100.802 22.136L95.7019 15.02C95.4379 14.636 95.0459 14.352 94.5259 14.168C95.0139 14.008 95.3979 13.724 95.6779 13.316L100.454 6.584ZM93.9499 23H90.7099V5.792H93.9499V23Z" fill="#EF0D37"/>
<path d="M121.695 5.78V23H118.455V8.768H113.127L112.671 17.228C112.559 19.204 112.087 20.688 111.255 21.68C110.423 22.672 109.395 23.168 108.171 23.168C107.139 23.168 106.203 23 105.363 22.664L105.687 21.056C105.735 20.744 105.843 20.512 106.011 20.36C106.187 20.208 106.447 20.148 106.791 20.18C106.863 20.18 106.995 20.196 107.187 20.228C107.379 20.26 107.519 20.276 107.607 20.276C108.055 20.276 108.455 20.02 108.807 19.508C109.167 18.988 109.375 18.156 109.431 17.012L110.055 5.78H121.695Z" fill="#EF0D37"/>
<path d="M134.13 5.78L141.654 23H139.338C138.954 23 138.606 22.9 138.294 22.7C137.99 22.492 137.762 22.204 137.61 21.836L136.59 19.472H128.814L127.794 21.836C127.634 22.204 127.398 22.492 127.086 22.7C126.782 22.9 126.438 23 126.054 23H123.738L131.262 5.78H134.13ZM129.99 16.76H135.402L133.242 11.768C132.922 11.032 132.762 10.324 132.762 9.644H132.642C132.634 10.332 132.47 11.04 132.15 11.768L129.99 16.76Z" fill="#EF0D37"/>
<path d="M159.926 5.78H162.482V23H159.242V11.84C159.242 11.488 159.322 11.04 159.482 10.496H159.446L154.514 20.108C154.21 20.7 153.738 20.996 153.098 20.996C152.45 20.996 151.974 20.7 151.67 20.108L146.738 10.496H146.702C146.862 11 146.942 11.448 146.942 11.84V23H143.702V5.78H146.27C146.734 5.78 147.094 5.864 147.35 6.032C147.614 6.2 147.862 6.504 148.094 6.944L152.798 15.8C152.942 16.112 153.034 16.5 153.074 16.964H153.11C153.158 16.484 153.254 16.096 153.398 15.8L158.09 6.944C158.322 6.504 158.566 6.2 158.822 6.032C159.086 5.864 159.454 5.78 159.926 5.78Z" fill="#EF0D37"/>
<path d="M174.935 5.78L182.459 23H180.143C179.759 23 179.411 22.9 179.099 22.7C178.795 22.492 178.567 22.204 178.415 21.836L177.395 19.472H169.619L168.599 21.836C168.439 22.204 168.203 22.492 167.891 22.7C167.587 22.9 167.243 23 166.859 23H164.543L172.067 5.78H174.935ZM170.795 16.76H176.207L174.047 11.768C173.727 11.032 173.567 10.324 173.567 9.644H173.447C173.439 10.332 173.275 11.04 172.955 11.768L170.795 16.76Z" fill="#EF0D37"/>
</svg>
