<svg width="183" height="19" viewBox="0 0 183 19" fill="none" xmlns="http://www.w3.org/2000/svg">
<path d="M0.383789 3.876V0.780003H13.6678V3.876H8.65179V18H5.41179V3.876H0.383789Z" fill="#EF0D37"/>
<path d="M14.3792 9.396C14.3792 7.748 14.7672 6.248 15.5432 4.896C16.3192 3.544 17.3872 2.484 18.7472 1.716C20.1072 0.940002 21.6152 0.552002 23.2712 0.552002C24.9272 0.552002 26.4352 0.940002 27.7952 1.716C29.1632 2.484 30.2352 3.544 31.0112 4.896C31.7952 6.248 32.1872 7.748 32.1872 9.396C32.1872 11.036 31.7952 12.532 31.0112 13.884C30.2352 15.236 29.1632 16.3 27.7952 17.076C26.4352 17.844 24.9272 18.228 23.2712 18.228C21.6152 18.228 20.1072 17.844 18.7472 17.076C17.3872 16.3 16.3192 15.236 15.5432 13.884C14.7672 12.532 14.3792 11.036 14.3792 9.396ZM17.6192 9.396C17.6192 11.004 18.1632 12.356 19.2512 13.452C20.3392 14.54 21.6832 15.084 23.2832 15.084C24.8832 15.084 26.2272 14.54 27.3152 13.452C28.4032 12.356 28.9472 11.004 28.9472 9.396C28.9472 7.78 28.4032 6.428 27.3152 5.34C26.2272 4.244 24.8832 3.696 23.2832 3.696C22.2352 3.696 21.2752 3.944 20.4032 4.44C19.5392 4.936 18.8592 5.624 18.3632 6.504C17.8672 7.376 17.6192 8.34 17.6192 9.396Z" fill="#EF0D37"/>
<path d="M49.8907 0.780003V18H46.6507V3.792H38.6227V18H35.3827V0.780003H49.8907Z" fill="#EF0D37"/>
<path d="M61.6327 18V0.780003H68.5327C70.2367 0.780003 71.6367 1.304 72.7327 2.352C73.8367 3.392 74.3887 4.72 74.3887 6.336C74.3887 7.952 73.8367 9.28 72.7327 10.32C71.6287 11.36 70.2287 11.88 68.5327 11.88H64.8727V18H61.6327ZM64.8727 8.796H68.5327C69.2927 8.796 69.9167 8.564 70.4047 8.1C70.9007 7.636 71.1487 7.048 71.1487 6.336C71.1487 5.624 70.9007 5.036 70.4047 4.572C69.9167 4.108 69.2927 3.876 68.5327 3.876H64.8727V8.796Z" fill="#EF0D37"/>
<path d="M87.7796 18H76.6796V0.780003H87.7796V3.912H79.9196V7.716H86.3036V10.728H79.9196V14.868H87.7796V18Z" fill="#EF0D37"/>
<path d="M100.838 1.584C101.19 1.048 101.662 0.780003 102.254 0.780003H105.278L99.6977 8.412C99.5697 8.596 99.4057 8.764 99.2057 8.916C99.0137 9.06 98.8217 9.14 98.6297 9.156V9.18C98.8297 9.212 99.0337 9.304 99.2417 9.456C99.4497 9.608 99.6097 9.764 99.7217 9.924L105.734 18H102.77C102.458 18 102.158 17.92 101.87 17.76C101.59 17.6 101.362 17.392 101.186 17.136L96.0857 10.02C95.8217 9.636 95.4297 9.352 94.9097 9.168C95.3977 9.008 95.7817 8.724 96.0617 8.316L100.838 1.584ZM94.3337 18H91.0937V0.792003H94.3337V18Z" fill="#EF0D37"/>
<path d="M122.079 0.780003V18H118.839V3.768H113.511L113.055 12.228C112.943 14.204 112.471 15.688 111.639 16.68C110.807 17.672 109.779 18.168 108.555 18.168C107.523 18.168 106.587 18 105.747 17.664L106.071 16.056C106.119 15.744 106.227 15.512 106.395 15.36C106.571 15.208 106.831 15.148 107.175 15.18C107.247 15.18 107.379 15.196 107.571 15.228C107.763 15.26 107.903 15.276 107.991 15.276C108.439 15.276 108.839 15.02 109.191 14.508C109.551 13.988 109.759 13.156 109.815 12.012L110.439 0.780003H122.079Z" fill="#EF0D37"/>
<path d="M134.514 0.780003L142.038 18H139.722C139.338 18 138.99 17.9 138.678 17.7C138.374 17.492 138.146 17.204 137.994 16.836L136.974 14.472H129.198L128.178 16.836C128.018 17.204 127.782 17.492 127.47 17.7C127.166 17.9 126.822 18 126.438 18H124.122L131.646 0.780003H134.514ZM130.374 11.76H135.786L133.626 6.768C133.306 6.032 133.146 5.324 133.146 4.644H133.026C133.018 5.332 132.854 6.04 132.534 6.768L130.374 11.76Z" fill="#EF0D37"/>
<path d="M160.31 0.780003H162.866V18H159.626V6.84C159.626 6.488 159.706 6.04 159.866 5.496H159.83L154.898 15.108C154.594 15.7 154.122 15.996 153.482 15.996C152.834 15.996 152.358 15.7 152.054 15.108L147.122 5.496H147.086C147.246 6 147.326 6.448 147.326 6.84V18H144.086V0.780003H146.654C147.118 0.780003 147.478 0.864003 147.734 1.032C147.998 1.2 148.246 1.504 148.478 1.944L153.182 10.8C153.326 11.112 153.418 11.5 153.458 11.964H153.494C153.542 11.484 153.638 11.096 153.782 10.8L158.474 1.944C158.706 1.504 158.95 1.2 159.206 1.032C159.47 0.864003 159.838 0.780003 160.31 0.780003Z" fill="#EF0D37"/>
<path d="M175.319 0.780003L182.843 18H180.527C180.143 18 179.795 17.9 179.483 17.7C179.179 17.492 178.951 17.204 178.799 16.836L177.779 14.472H170.003L168.983 16.836C168.823 17.204 168.587 17.492 168.275 17.7C167.971 17.9 167.627 18 167.243 18H164.927L172.451 0.780003H175.319ZM171.179 11.76H176.591L174.431 6.768C174.111 6.032 173.951 5.324 173.951 4.644H173.831C173.823 5.332 173.659 6.04 173.339 6.768L171.179 11.76Z" fill="#EF0D37"/>
</svg>
