<svg width="237" height="22" viewBox="0 0 237 22" fill="none" xmlns="http://www.w3.org/2000/svg">
<path fill-rule="evenodd" clip-rule="evenodd" d="M209.145 6.65865C209.145 6.91089 209.12 7.16313 209.069 7.41537C209.019 7.66496 208.942 7.90392 208.838 8.13226C208.735 8.35795 208.604 8.56904 208.448 8.76552C208.294 8.95934 208.111 9.12927 207.898 9.27531C207.686 9.41869 207.445 9.5302 207.177 9.60986C206.912 9.69217 206.617 9.73332 206.293 9.73332C205.969 9.73332 205.673 9.69217 205.405 9.60986C205.137 9.5302 204.897 9.41869 204.684 9.27531C204.474 9.12927 204.291 8.95934 204.134 8.76552C203.978 8.56904 203.848 8.35795 203.744 8.13226C203.641 7.90392 203.564 7.66496 203.513 7.41537C203.463 7.16313 203.438 6.91089 203.438 6.65865C203.438 6.20462 203.501 5.78909 203.629 5.41206C203.759 5.03503 203.946 4.7111 204.19 4.44027C204.435 4.16945 204.733 3.95969 205.086 3.811C205.439 3.65966 205.842 3.58398 206.293 3.58398C206.742 3.58398 207.143 3.65966 207.496 3.811C207.852 3.95969 208.15 4.16945 208.392 4.44027C208.636 4.7111 208.822 5.03503 208.95 5.41206C209.08 5.78909 209.145 6.20462 209.145 6.65865ZM208.364 6.65865C208.364 6.31083 208.318 5.99088 208.225 5.69881C208.132 5.40409 207.996 5.15185 207.819 4.9421C207.643 4.72968 207.427 4.56506 207.169 4.44824C206.912 4.32876 206.62 4.26901 206.293 4.26901C205.964 4.26901 205.67 4.32876 205.413 4.44824C205.155 4.56506 204.938 4.72968 204.76 4.9421C204.585 5.15185 204.45 5.40409 204.358 5.69881C204.265 5.99088 204.218 6.31083 204.218 6.65865C204.218 7.01444 204.261 7.3397 204.346 7.63442C204.431 7.92649 204.559 8.1774 204.732 8.38716C204.904 8.59692 205.12 8.76021 205.377 8.87703C205.637 8.99121 205.943 9.04829 206.293 9.04829C206.641 9.04829 206.945 8.99121 207.205 8.87703C207.465 8.76021 207.68 8.59692 207.85 8.38716C208.023 8.1774 208.152 7.92649 208.237 7.63442C208.322 7.3397 208.364 7.01444 208.364 6.65865ZM178.083 4.56772L178.976 7.17243H177.096L178.083 4.56772ZM177.609 3.63974L175.415 9.58596H176.243L176.897 7.79373H179.199L179.816 9.58596H180.684L178.561 3.63974H177.609ZM156.338 6.47146C156.752 6.47146 157.051 6.38384 157.234 6.2086C157.417 6.03336 157.509 5.77847 157.509 5.44392C157.509 5.10937 157.417 4.85448 157.234 4.67924C157.051 4.504 156.752 4.41638 156.338 4.41638H154.737V6.47146H156.338ZM153.956 3.73135H156.417C156.739 3.73135 157.016 3.7725 157.25 3.85481C157.486 3.93712 157.681 4.05395 157.835 4.20529C157.989 4.35398 158.103 4.5332 158.178 4.74296C158.255 4.95272 158.293 5.18637 158.293 5.44392C158.293 5.70147 158.255 5.93512 158.178 6.14488C158.103 6.35464 157.989 6.53519 157.835 6.68653C157.681 6.83522 157.486 6.95072 157.25 7.03303C157.016 7.11534 156.739 7.15649 156.417 7.15649H154.737V9.58596H153.956V3.73135ZM159.396 3.73135H163.67V4.41638H160.177V6.22454H163.399V6.90956H160.177V8.90093H163.726V9.58596H159.396V3.73135ZM165.617 3.73135H164.837V9.58596H165.617V7.5468L166.565 6.63476L168.628 9.58596H169.632L167.127 6.09311L169.564 3.73135H168.473L165.617 6.58298V3.73135ZM173.882 4.41638H171.791C171.791 4.87041 171.785 5.31647 171.775 5.75457C171.764 6.19267 171.742 6.60821 171.707 7.00117C171.673 7.39148 171.621 7.75125 171.552 8.08049C171.483 8.40973 171.388 8.69516 171.269 8.93678C171.15 9.17574 171.001 9.36293 170.823 9.49834C170.648 9.6311 170.434 9.69748 170.182 9.69748C170.105 9.69748 170.04 9.69084 169.987 9.67756L169.819 9.63375V8.9089C169.848 8.92217 169.884 8.93412 169.927 8.94474C169.972 8.95271 170.036 8.95669 170.118 8.95669C170.24 8.95669 170.345 8.91288 170.433 8.82526C170.523 8.73498 170.6 8.61019 170.664 8.45088C170.727 8.29157 170.779 8.10306 170.819 7.88533C170.861 7.66496 170.895 7.42599 170.919 7.16844C170.945 6.91089 170.964 6.63874 170.974 6.35198C170.988 6.06523 170.997 5.77449 171.002 5.47976C171.01 5.18239 171.014 4.88634 171.014 4.59162C171.017 4.29424 171.021 4.00748 171.026 3.73135H174.666V9.58596H173.882V4.41638ZM181.413 3.73135H182.536L184.193 8.65798H184.209L185.866 3.73135H186.989V9.58596H186.256V4.65932H186.24L184.591 9.58596H183.811L182.162 4.65932H182.146V9.58596H181.413V3.73135ZM190.414 4.56772L191.306 7.17243H189.426L190.414 4.56772ZM189.94 3.63974L187.746 9.58596H188.574L189.227 7.79373H191.529L192.146 9.58596H193.015L190.892 3.63974H189.94ZM193.815 10.4184C193.998 10.3865 194.127 10.2577 194.202 10.032C194.241 9.91254 194.261 9.79705 194.261 9.68553C194.261 9.66694 194.26 9.64968 194.257 9.63375C194.257 9.62048 194.255 9.60455 194.249 9.58596H193.815V8.71773H194.668V9.52224C194.668 9.8382 194.604 10.1157 194.476 10.3546C194.349 10.5936 194.129 10.741 193.815 10.7967V10.4184ZM199.064 3.73135H198.284V9.58596H199.064V7.5468L200.012 6.63476L202.075 9.58596H203.079L200.574 6.09311L203.011 3.73135H201.92L199.064 6.58298V3.73135ZM214.346 3.73135H209.583V4.41638H211.57V9.58596H212.355V4.41638H214.346V3.73135ZM220.48 6.65865C220.48 6.91089 220.454 7.16313 220.404 7.41537C220.353 7.66496 220.276 7.90392 220.173 8.13226C220.069 8.35795 219.939 8.56904 219.783 8.76552C219.629 8.95934 219.445 9.12927 219.233 9.27531C219.021 9.41869 218.78 9.5302 218.512 9.60986C218.247 9.69217 217.952 9.73332 217.628 9.73332C217.304 9.73332 217.008 9.69217 216.74 9.60986C216.472 9.5302 216.231 9.41869 216.019 9.27531C215.809 9.12927 215.626 8.95934 215.469 8.76552C215.313 8.56904 215.183 8.35795 215.079 8.13226C214.975 7.90392 214.898 7.66496 214.848 7.41537C214.798 7.16313 214.772 6.91089 214.772 6.65865C214.772 6.20462 214.836 5.78909 214.964 5.41206C215.094 5.03503 215.281 4.7111 215.525 4.44027C215.769 4.16945 216.068 3.95969 216.421 3.811C216.774 3.65966 217.177 3.58398 217.628 3.58398C218.077 3.58398 218.478 3.65966 218.831 3.811C219.187 3.95969 219.485 4.16945 219.727 4.44027C219.971 4.7111 220.157 5.03503 220.284 5.41206C220.415 5.78909 220.48 6.20462 220.48 6.65865ZM219.699 6.65865C219.699 6.31083 219.653 5.99088 219.56 5.69881C219.467 5.40409 219.331 5.15185 219.153 4.9421C218.978 4.72968 218.762 4.56506 218.504 4.44824C218.247 4.32876 217.955 4.26901 217.628 4.26901C217.299 4.26901 217.005 4.32876 216.748 4.44824C216.49 4.56506 216.273 4.72968 216.095 4.9421C215.919 5.15185 215.785 5.40409 215.692 5.69881C215.599 5.99088 215.553 6.31083 215.553 6.65865C215.553 7.01444 215.595 7.3397 215.68 7.63442C215.765 7.92649 215.894 8.1774 216.067 8.38716C216.239 8.59692 216.454 8.76021 216.712 8.87703C216.972 8.99121 217.277 9.04829 217.628 9.04829C217.976 9.04829 218.28 8.99121 218.54 8.87703C218.8 8.76021 219.015 8.59692 219.185 8.38716C219.358 8.1774 219.487 7.92649 219.572 7.63442C219.657 7.3397 219.699 7.01444 219.699 6.65865ZM224.685 6.2086C224.502 6.38384 224.203 6.47146 223.789 6.47146H222.188V4.41638H223.789C224.203 4.41638 224.502 4.504 224.685 4.67924C224.869 4.85448 224.96 5.10937 224.96 5.44392C224.96 5.77847 224.869 6.03336 224.685 6.2086ZM223.869 3.73135H221.408V9.58596H222.188V7.15649H223.869C224.19 7.15649 224.468 7.11534 224.701 7.03303C224.938 6.95072 225.133 6.83522 225.287 6.68653C225.441 6.53519 225.555 6.35464 225.629 6.14488C225.706 5.93512 225.745 5.70147 225.745 5.44392C225.745 5.18637 225.706 4.95272 225.629 4.74296C225.555 4.5332 225.441 4.35398 225.287 4.20529C225.133 4.05395 224.938 3.93712 224.701 3.85481C224.468 3.7725 224.19 3.73135 223.869 3.73135ZM229.947 7.17243L229.054 4.56772L228.067 7.17243H229.947ZM226.386 9.58596L228.58 3.63974H229.532L231.655 9.58596H230.787L230.17 7.79373H227.868L227.214 9.58596H226.386ZM236.215 9.58596H237V3.73135H234.575C234.482 3.73135 234.373 3.73267 234.248 3.73533C234.126 3.73798 233.998 3.74595 233.866 3.75922C233.733 3.7725 233.601 3.79507 233.471 3.82693C233.344 3.85879 233.231 3.9026 233.133 3.95836C233.04 4.01146 232.948 4.0805 232.858 4.16546C232.77 4.24777 232.692 4.34867 232.623 4.46815C232.554 4.58498 232.498 4.71906 232.456 4.87041C232.413 5.02175 232.392 5.19035 232.392 5.37621C232.392 5.63642 232.428 5.85149 232.499 6.02142C232.574 6.18869 232.663 6.3241 232.766 6.42765C232.873 6.53121 232.983 6.60953 233.097 6.66264C233.211 6.71574 233.311 6.75822 233.396 6.79008C233.21 6.84584 233.062 6.9162 232.954 7.00117C232.847 7.08613 232.766 7.18172 232.711 7.28792C232.655 7.39413 232.616 7.5083 232.595 7.63044C232.574 7.75258 232.558 7.88002 232.547 8.01278L232.48 8.80933C232.469 8.9235 232.454 9.02174 232.436 9.10405C232.417 9.18636 232.396 9.25805 232.372 9.31912C232.348 9.37753 232.322 9.42798 232.292 9.47046C232.263 9.51294 232.233 9.55144 232.201 9.58596H233.101C233.127 9.5302 233.149 9.4771 233.165 9.42665C233.183 9.37355 233.199 9.32045 233.212 9.26734C233.226 9.21424 233.236 9.15715 233.244 9.09608C233.252 9.03236 233.259 8.962 233.264 8.885L233.304 8.24776C233.315 8.08845 233.331 7.95437 233.352 7.84551C233.373 7.73665 233.4 7.64504 233.431 7.5707C233.466 7.49635 233.506 7.43529 233.551 7.38749C233.596 7.33704 233.649 7.29191 233.71 7.25208C233.761 7.22022 233.812 7.19499 233.866 7.17641C233.921 7.15517 233.988 7.13924 234.065 7.12862C234.144 7.11534 234.239 7.10737 234.347 7.10472C234.459 7.09941 234.596 7.09675 234.758 7.09675H236.215V9.58596ZM234.423 4.42434H236.215V6.43562H234.527C234.415 6.43828 234.313 6.4396 234.22 6.4396C234.13 6.4396 234.045 6.43429 233.965 6.42367C233.885 6.4104 233.81 6.39048 233.738 6.36393C233.669 6.33472 233.6 6.29357 233.531 6.24047C233.451 6.18205 233.388 6.11833 233.34 6.04929C233.292 5.97761 233.255 5.90592 233.228 5.83423C233.202 5.75988 233.185 5.68952 233.177 5.62314C233.169 5.55411 233.165 5.49171 233.165 5.43595C233.165 5.35364 233.173 5.27001 233.189 5.18504C233.204 5.10008 233.23 5.01777 233.264 4.93811C233.301 4.85846 233.348 4.78544 233.404 4.71906C233.459 4.65268 233.527 4.59693 233.607 4.55179C233.662 4.51993 233.724 4.49603 233.79 4.4801C233.856 4.46151 233.925 4.44824 233.997 4.44027C234.069 4.43231 234.14 4.42832 234.212 4.42832C234.284 4.42567 234.354 4.42434 234.423 4.42434ZM170.636 17.2485C170.686 16.9963 170.711 16.7441 170.711 16.4918C170.711 16.0378 170.646 15.6223 170.516 15.2452C170.389 14.8682 170.203 14.5443 169.959 14.2734C169.717 14.0026 169.418 13.7929 169.063 13.6442C168.709 13.4928 168.308 13.4172 167.86 13.4172C167.408 13.4172 167.006 13.4928 166.653 13.6442C166.3 13.7929 166.001 14.0026 165.757 14.2734C165.513 14.5443 165.325 14.8682 165.195 15.2452C165.068 15.6223 165.004 16.0378 165.004 16.4918C165.004 16.7441 165.029 16.9963 165.08 17.2485C165.13 17.4981 165.207 17.7371 165.311 17.9654C165.414 18.1911 165.544 18.4022 165.701 18.5987C165.858 18.7925 166.041 18.9624 166.251 19.1085C166.463 19.2519 166.703 19.3634 166.972 19.443C167.24 19.5253 167.536 19.5665 167.86 19.5665C168.184 19.5665 168.478 19.5253 168.744 19.443C169.012 19.3634 169.252 19.2519 169.465 19.1085C169.677 18.9624 169.86 18.7925 170.014 18.5987C170.171 18.4022 170.301 18.1911 170.405 17.9654C170.508 17.7371 170.585 17.4981 170.636 17.2485ZM169.791 15.532C169.884 15.8241 169.931 16.144 169.931 16.4918C169.931 16.8476 169.888 17.1729 169.803 17.4676C169.718 17.7597 169.59 18.0106 169.417 18.2203C169.247 18.4301 169.032 18.5934 168.772 18.7102C168.512 18.8244 168.208 18.8815 167.86 18.8815C167.509 18.8815 167.204 18.8244 166.944 18.7102C166.686 18.5934 166.471 18.4301 166.299 18.2203C166.126 18.0106 165.997 17.7597 165.912 17.4676C165.827 17.1729 165.785 16.8476 165.785 16.4918C165.785 16.144 165.831 15.8241 165.924 15.532C166.017 15.2373 166.151 14.985 166.326 14.7753C166.504 14.5629 166.722 14.3982 166.98 14.2814C167.237 14.1619 167.531 14.1022 167.86 14.1022C168.186 14.1022 168.478 14.1619 168.736 14.2814C168.994 14.3982 169.21 14.5629 169.385 14.7753C169.563 14.985 169.698 15.2373 169.791 15.532ZM153.956 13.5645H158.636V19.4191H157.851V14.2495H154.737V19.4191H153.956V13.5645ZM162.232 16.3046C162.646 16.3046 162.945 16.217 163.128 16.0418C163.312 15.8665 163.403 15.6116 163.403 15.2771C163.403 14.9425 163.312 14.6876 163.128 14.5124C162.945 14.3372 162.646 14.2495 162.232 14.2495H160.631V16.3046H162.232ZM159.851 13.5645H162.312C162.633 13.5645 162.911 13.6057 163.144 13.688C163.381 13.7703 163.576 13.8871 163.73 14.0385C163.884 14.1872 163.998 14.3664 164.072 14.5761C164.149 14.7859 164.188 15.0195 164.188 15.2771C164.188 15.5346 164.149 15.7683 164.072 15.9781C163.998 16.1878 163.884 16.3684 163.73 16.5197C163.576 16.6684 163.381 16.7839 163.144 16.8662C162.911 16.9485 162.633 16.9897 162.312 16.9897H160.631V19.4191H159.851V13.5645ZM171.181 20.6737V18.7341H171.711C171.767 18.6067 171.819 18.4779 171.866 18.3478C171.914 18.215 171.958 18.0663 171.998 17.9017C172.04 17.7344 172.079 17.5433 172.113 17.3282C172.151 17.1131 172.185 16.8582 172.217 16.5635C172.254 16.2529 172.283 15.9475 172.305 15.6475C172.326 15.3448 172.342 15.062 172.352 14.7992C172.366 14.5363 172.374 14.2987 172.376 14.0863C172.382 13.8738 172.385 13.6999 172.388 13.5645H176.068V18.7341H176.729V20.6737H175.996V19.4191H171.914V20.6737H171.181ZM173.121 14.2495C173.121 14.6292 173.105 15.0076 173.073 15.3846C173.044 15.7617 173.008 16.1413 172.966 16.5237C172.936 16.8264 172.906 17.0839 172.874 17.2963C172.845 17.5061 172.813 17.6933 172.778 17.8579C172.747 18.0199 172.709 18.1699 172.667 18.308C172.627 18.4434 172.581 18.5854 172.528 18.7341H175.264V14.2495H173.121ZM179.565 14.4009L180.457 17.0056H178.577L179.565 14.4009ZM179.091 13.4729L176.897 19.4191H177.725L178.378 17.6269H180.68L181.298 19.4191H182.166L180.043 13.4729H179.091ZM182.895 13.5645H187.168V14.2495H183.675V16.0577H186.897V16.7427H183.675V18.7341H187.224V19.4191H182.895V13.5645ZM192.608 13.5645H187.845V14.2495H189.833V19.4191H190.617V14.2495H192.608V13.5645Z" fill="#181818"/>
<path d="M144.997 0V21.5039H144.255V0H144.997Z" fill="#EAEAEA"/>
<path d="M0 6.58161V4.28589H9.85025V6.58161H6.13082V17.0547H3.72832V6.58161H0Z" fill="#EF0D37"/>
<path d="M10.3777 10.6748C10.3777 9.45274 10.6654 8.34048 11.2409 7.33795C11.8163 6.33543 12.6082 5.54942 13.6167 4.97994C14.6251 4.40453 15.7433 4.11682 16.9713 4.11682C18.1992 4.11682 19.3174 4.40453 20.3259 4.97994C21.3403 5.54942 22.1352 6.33543 22.7106 7.33795C23.2919 8.34048 23.5826 9.45274 23.5826 10.6748C23.5826 11.8908 23.2919 13.0001 22.7106 14.0027C22.1352 15.0052 21.3403 15.7942 20.3259 16.3696C19.3174 16.9391 18.1992 17.2238 16.9713 17.2238C15.7433 17.2238 14.6251 16.9391 13.6167 16.3696C12.6082 15.7942 11.8163 15.0052 11.2409 14.0027C10.6654 13.0001 10.3777 11.8908 10.3777 10.6748ZM12.7802 10.6748C12.7802 11.8671 13.1836 12.8696 13.9904 13.6823C14.7972 14.4891 15.7937 14.8925 16.9802 14.8925C18.1666 14.8925 19.1632 14.4891 19.9699 13.6823C20.7767 12.8696 21.1801 11.8671 21.1801 10.6748C21.1801 9.47647 20.7767 8.47395 19.9699 7.66718C19.1632 6.85448 18.1666 6.44814 16.9802 6.44814C16.2031 6.44814 15.4912 6.63203 14.8446 6.99982C14.2039 7.36761 13.6997 7.87777 13.3319 8.5303C12.9641 9.1769 12.7802 9.89172 12.7802 10.6748Z" fill="#EF0D37"/>
<path d="M36.71 4.28589V17.0547H34.3075V6.51932H28.3546V17.0547H25.9521V4.28589H36.71Z" fill="#EF0D37"/>
<path d="M45.4168 17.0547V4.28589H50.5333C51.7968 4.28589 52.8349 4.67444 53.6476 5.45154C54.4663 6.22272 54.8756 7.20744 54.8756 8.40573C54.8756 9.60401 54.4663 10.5887 53.6476 11.3599C52.829 12.1311 51.7909 12.5167 50.5333 12.5167H47.8193V17.0547H45.4168ZM47.8193 10.2298H50.5333C51.0968 10.2298 51.5595 10.0578 51.9214 9.71376C52.2892 9.36969 52.4731 8.93368 52.4731 8.40573C52.4731 7.87777 52.2892 7.44176 51.9214 7.0977C51.5595 6.75364 51.0968 6.58161 50.5333 6.58161H47.8193V10.2298Z" fill="#EF0D37"/>
<path d="M64.8051 17.0547H56.5743V4.28589H64.8051V6.6083H58.9768V9.42901H63.7106V11.6624H58.9768V14.7323H64.8051V17.0547Z" fill="#EF0D37"/>
<path d="M74.4878 4.88206C74.7488 4.48461 75.0988 4.28589 75.5378 4.28589H77.7801L73.6425 9.94511C73.5475 10.0815 73.4259 10.2061 73.2776 10.3188C73.1353 10.4256 72.9929 10.4849 72.8505 10.4968V10.5146C72.9988 10.5383 73.1501 10.6065 73.3043 10.7192C73.4586 10.832 73.5772 10.9476 73.6602 11.0663L78.1182 17.0547H75.9204C75.689 17.0547 75.4666 16.9954 75.253 16.8768C75.0454 16.7581 74.8763 16.6039 74.7458 16.4141L70.9641 11.1375C70.7683 10.8527 70.4777 10.6421 70.0921 10.5057C70.454 10.387 70.7387 10.1765 70.9463 9.87392L74.4878 4.88206ZM69.665 17.0547H67.2625V4.29479H69.665V17.0547Z" fill="#EF0D37"/>
<path d="M90.2385 4.28589V17.0547H87.836V6.50152H83.8852L83.5471 12.7747C83.464 14.2399 83.114 15.3404 82.4971 16.0759C81.8801 16.8115 81.1179 17.1793 80.2103 17.1793C79.445 17.1793 78.751 17.0547 78.1281 16.8056L78.3683 15.6132C78.4039 15.3819 78.484 15.2098 78.6086 15.0971C78.7391 14.9844 78.9319 14.9399 79.187 14.9637C79.2404 14.9637 79.3382 14.9755 79.4806 14.9993C79.623 15.023 79.7268 15.0348 79.792 15.0348C80.1242 15.0348 80.4209 14.845 80.6819 14.4654C80.9488 14.0798 81.103 13.4628 81.1446 12.6146L81.6073 4.28589H90.2385Z" fill="#EF0D37"/>
<path d="M99.4592 4.28589L105.038 17.0547H103.321C103.036 17.0547 102.778 16.9806 102.547 16.8323C102.321 16.678 102.152 16.4645 102.04 16.1916L101.283 14.4387H95.5173L94.761 16.1916C94.6423 16.4645 94.4673 16.678 94.236 16.8323C94.0105 16.9806 93.7555 17.0547 93.4707 17.0547H91.7534L97.3325 4.28589H99.4592ZM96.3893 12.4277H100.402L98.8007 8.72606C98.5634 8.18031 98.4448 7.65532 98.4448 7.15109H98.3558C98.3499 7.66125 98.2283 8.18624 97.991 8.72606L96.3893 12.4277Z" fill="#EF0D37"/>
<path d="M118.587 4.28589H120.482V17.0547H118.08V8.77945C118.08 8.51844 118.139 8.18624 118.258 7.78286H118.231L114.574 14.9103C114.349 15.3492 113.999 15.5687 113.524 15.5687C113.044 15.5687 112.691 15.3492 112.465 14.9103L108.808 7.78286H108.781C108.9 8.15658 108.959 8.48878 108.959 8.77945V17.0547H106.557V4.28589H108.461C108.805 4.28589 109.072 4.34817 109.262 4.47275C109.458 4.59732 109.642 4.82274 109.814 5.14901L113.302 11.7158C113.408 11.9472 113.477 12.2349 113.506 12.579H113.533C113.569 12.223 113.64 11.9353 113.747 11.7158L117.226 5.14901C117.398 4.82274 117.579 4.59732 117.769 4.47275C117.964 4.34817 118.237 4.28589 118.587 4.28589Z" fill="#EF0D37"/>
<path d="M129.716 4.28589L135.295 17.0547H133.578C133.293 17.0547 133.035 16.9806 132.804 16.8323C132.579 16.678 132.41 16.4645 132.297 16.1916L131.54 14.4387H125.774L125.018 16.1916C124.899 16.4645 124.724 16.678 124.493 16.8323C124.268 16.9806 124.013 17.0547 123.728 17.0547H122.011L127.59 4.28589H129.716ZM126.646 12.4277H130.66L129.058 8.72606C128.821 8.18031 128.702 7.65532 128.702 7.15109H128.613C128.607 7.66125 128.485 8.18624 128.248 8.72606L126.646 12.4277Z" fill="#EF0D37"/>
</svg>
